<?xml version="1.0"?>
 <!-- Created with matplotlib (https://matplotlib.org/) -->
<svg height="420.9175" version="1.1" viewBox="0 0 750.804687 420.9175" width="750.804687" xmlns="http://www.w3.org/2000/svg" xmlns:xlink="http://www.w3.org/1999/xlink"> <defs> <style type="text/css">
*{stroke-linecap:butt;stroke-linejoin:round;} </style> </defs> <g id="figure_1"> <g id="patch_1"> <path d="M 0 420.9175 L 750.804687 420.9175 L 750.804687 0 L 0 0 z
" style="fill:none;"></path> </g> <g id="axes_1"> <g id="patch_2"> <path d="M 92.189688 346.157812 L 725.789688 346.157812 L 725.789688 17.837812 L 92.189688 17.837812 z
" style="fill:none;"></path> </g> <g id="matplotlib.axis_1"> <g id="xtick_1"> <g id="line2d_1"> <defs> <path d="M 0 0 L 0 3.5 " id="mb33a8046c4" style="stroke:#000000;stroke-width:0.8;"></path> </defs> <g> <use style="stroke:#000000;stroke-width:0.8;" x="208.565198" xlink:href="#mb33a8046c4" y="346.157812"></use> </g> </g> <g id="text_1">  <defs> <path d="M 12.796875 55.515625 L 7.328125 55.515625 L 7.328125 68.5 Q 12.546875 71.296875 17.84375 72.75 Q 23.140625 74.21875 28.21875 74.21875 Q 39.59375 74.21875 46.1875 68.703125 Q 52.78125 63.1875 52.78125 53.71875 Q 52.78125 43.015625 37.84375 28.125 Q 36.671875 27 36.078125 26.421875 L 17.671875 8.015625 L 48.09375 8.015625 L 48.09375 17 L 53.8125 17 L 53.8125 0 L 6.78125 0 L 6.78125 5.328125 L 28.90625 27.390625 Q 36.234375 34.71875 39.359375 40.84375 Q 42.484375 46.96875 42.484375 53.71875 Q 42.484375 61.078125 38.640625 65.234375 Q 34.8125 69.390625 28.078125 69.390625 Q 21.09375 69.390625 17.28125 65.921875 Q 13.484375 62.453125 12.796875 55.515625 z
" id="DejaVuSerif-50"></path> </defs> <g transform="translate(199.657698 374.433437)scale(0.28 -0.28)"> <use xlink:href="#DejaVuSerif-50"></use> </g> </g> </g> <g id="xtick_2"> <g id="line2d_2"> <g> <use style="stroke:#000000;stroke-width:0.8;" x="337.87132" xlink:href="#mb33a8046c4" y="346.157812"></use> </g> </g> <g id="text_2">  <defs> <path d="M 34.90625 24.703125 L 34.90625 63.484375 L 10.015625 24.703125 z
M 56.390625 0 L 23.1875 0 L 23.1875 5.171875 L 34.90625 5.171875 L 34.90625 19.484375 L 3.078125 19.484375 L 3.078125 24.8125 L 35.015625 74.21875 L 44.671875 74.21875 L 44.671875 24.703125 L 58.59375 24.703125 L 58.59375 19.484375 L 44.671875 19.484375 L 44.671875 5.171875 L 56.390625 5.171875 z
" id="DejaVuSerif-52"></path> </defs> <g transform="translate(328.96382 374.433437)scale(0.28 -0.28)"> <use xlink:href="#DejaVuSerif-52"></use> </g> </g> </g> <g id="xtick_3"> <g id="line2d_3"> <g> <use style="stroke:#000000;stroke-width:0.8;" x="467.177443" xlink:href="#mb33a8046c4" y="346.157812"></use> </g> </g> <g id="text_3">  <defs> <path d="M 32.71875 3.421875 Q 39.59375 3.421875 43.296875 8.46875 Q 47.015625 13.53125 47.015625 23 Q 47.015625 32.46875 43.296875 37.515625 Q 39.59375 42.578125 32.71875 42.578125 Q 25.734375 42.578125 22.0625 37.6875 Q 18.40625 32.8125 18.40625 23.578125 Q 18.40625 13.875 22.109375 8.640625 Q 25.828125 3.421875 32.71875 3.421875 z
M 16.796875 40.140625 Q 20.125 43.796875 24.3125 45.59375 Q 28.515625 47.40625 33.796875 47.40625 Q 44.671875 47.40625 51 40.859375 Q 57.328125 34.328125 57.328125 23 Q 57.328125 11.921875 50.515625 5.25 Q 43.703125 -1.421875 32.328125 -1.421875 Q 19.96875 -1.421875 13.328125 7.78125 Q 6.6875 17 6.6875 34.078125 Q 6.6875 53.21875 14.546875 63.71875 Q 22.40625 74.21875 36.71875 74.21875 Q 40.578125 74.21875 44.828125 73.484375 Q 49.078125 72.75 53.515625 71.296875 L 53.515625 59.28125 L 48 59.28125 Q 47.40625 64.203125 44.234375 66.796875 Q 41.0625 69.390625 35.6875 69.390625 Q 26.21875 69.390625 21.578125 62.203125 Q 16.9375 55.03125 16.796875 40.140625 z
" id="DejaVuSerif-54"></path> </defs> <g transform="translate(458.269943 374.433437)scale(0.28 -0.28)"> <use xlink:href="#DejaVuSerif-54"></use> </g> </g> </g> <g id="xtick_4"> <g id="line2d_4"> <g> <use style="stroke:#000000;stroke-width:0.8;" x="596.483565" xlink:href="#mb33a8046c4" y="346.157812"></use> </g> </g> <g id="text_4">  <defs> <path d="M 46.578125 19.921875 Q 46.578125 27.734375 42.6875 32.046875 Q 38.8125 36.375 31.78125 36.375 Q 24.75 36.375 20.875 32.046875 Q 17 27.734375 17 19.921875 Q 17 12.0625 20.875 7.734375 Q 24.75 3.421875 31.78125 3.421875 Q 38.8125 3.421875 42.6875 7.734375 Q 46.578125 12.0625 46.578125 19.921875 z
M 44.578125 55.328125 Q 44.578125 61.96875 41.203125 65.671875 Q 37.84375 69.390625 31.78125 69.390625 Q 25.78125 69.390625 22.390625 65.671875 Q 19 61.96875 19 55.328125 Q 19 48.640625 22.390625 44.921875 Q 25.78125 41.21875 31.78125 41.21875 Q 37.84375 41.21875 41.203125 44.921875 Q 44.578125 48.640625 44.578125 55.328125 z
M 39.3125 38.8125 Q 47.609375 37.703125 52.25 32.6875 Q 56.890625 27.6875 56.890625 19.921875 Q 56.890625 9.671875 50.390625 4.125 Q 43.890625 -1.421875 31.78125 -1.421875 Q 19.734375 -1.421875 13.203125 4.125 Q 6.6875 9.671875 6.6875 19.921875 Q 6.6875 27.6875 11.328125 32.6875 Q 15.96875 37.703125 24.3125 38.8125 Q 16.9375 40.140625 13 44.40625 Q 9.078125 48.6875 9.078125 55.328125 Q 9.078125 64.109375 15.125 69.15625 Q 21.1875 74.21875 31.78125 74.21875 Q 42.390625 74.21875 48.4375 69.15625 Q 54.5 64.109375 54.5 55.328125 Q 54.5 48.6875 50.5625 44.40625 Q 46.625 40.140625 39.3125 38.8125 z
" id="DejaVuSerif-56"></path> </defs> <g transform="translate(587.576065 374.433437)scale(0.28 -0.28)"> <use xlink:href="#DejaVuSerif-56"></use> </g> </g> </g> <g id="xtick_5"> <g id="line2d_5"> <g> <use style="stroke:#000000;stroke-width:0.8;" x="725.789687" xlink:href="#mb33a8046c4" y="346.157812"></use> </g> </g> <g id="text_5">  <defs> <path d="M 14.203125 0 L 14.203125 5.171875 L 26.90625 5.171875 L 26.90625 65.828125 L 12.203125 56.296875 L 12.203125 62.703125 L 29.984375 74.21875 L 36.71875 74.21875 L 36.71875 5.171875 L 49.421875 5.171875 L 49.421875 0 z
" id="DejaVuSerif-49"></path> <path d="M 31.78125 3.421875 Q 39.265625 3.421875 42.96875 11.625 Q 46.6875 19.828125 46.6875 36.375 Q 46.6875 52.984375 42.96875 61.1875 Q 39.265625 69.390625 31.78125 69.390625 Q 24.3125 69.390625 20.59375 61.1875 Q 16.890625 52.984375 16.890625 36.375 Q 16.890625 19.828125 20.59375 11.625 Q 24.3125 3.421875 31.78125 3.421875 z
M 31.78125 -1.421875 Q 19.921875 -1.421875 13.25 8.53125 Q 6.59375 18.5 6.59375 36.375 Q 6.59375 54.296875 13.25 64.25 Q 19.921875 74.21875 31.78125 74.21875 Q 43.703125 74.21875 50.34375 64.25 Q 56.984375 54.296875 56.984375 36.375 Q 56.984375 18.5 50.34375 8.53125 Q 43.703125 -1.421875 31.78125 -1.421875 z
" id="DejaVuSerif-48"></path> </defs> <g transform="translate(707.974687 374.433437)scale(0.28 -0.28)"> <use xlink:href="#DejaVuSerif-49"></use> <use x="63.623047" xlink:href="#DejaVuSerif-48"></use> </g> </g> </g> <g id="text_6">  <defs> <path d="M 24.703125 37.109375 L 37.59375 37.109375 Q 44.875 37.109375 48.671875 41.03125 Q 52.484375 44.96875 52.484375 52.390625 Q 52.484375 59.859375 48.671875 63.765625 Q 44.875 67.671875 37.59375 67.671875 L 24.703125 67.671875 z
M 5.515625 0 L 5.515625 5.171875 L 14.796875 5.171875 L 14.796875 67.671875 L 5.515625 67.671875 L 5.515625 72.90625 L 39.984375 72.90625 Q 50.921875 72.90625 57.3125 67.359375 Q 63.71875 61.8125 63.71875 52.390625 Q 63.71875 43.015625 57.3125 37.453125 Q 50.921875 31.890625 39.984375 31.890625 L 24.703125 31.890625 L 24.703125 5.171875 L 35.984375 5.171875 L 35.984375 0 z
" id="DejaVuSerif-80"></path> <path d="M 54.203125 25 L 15.484375 25 L 15.484375 24.609375 Q 15.484375 14.109375 19.4375 8.765625 Q 23.390625 3.421875 31.109375 3.421875 Q 37.015625 3.421875 40.796875 6.515625 Q 44.578125 9.625 46.09375 15.71875 L 53.328125 15.71875 Q 51.171875 7.171875 45.375 2.875 Q 39.59375 -1.421875 30.171875 -1.421875 Q 18.796875 -1.421875 11.890625 6.078125 Q 4.984375 13.578125 4.984375 25.984375 Q 4.984375 38.28125 11.765625 45.796875 Q 18.5625 53.328125 29.59375 53.328125 Q 41.359375 53.328125 47.65625 46.0625 Q 53.953125 38.8125 54.203125 25 z
M 43.609375 30.171875 Q 43.3125 39.265625 39.765625 43.875 Q 36.234375 48.484375 29.59375 48.484375 Q 23.390625 48.484375 19.828125 43.84375 Q 16.265625 39.203125 15.484375 30.171875 z
" id="DejaVuSerif-101"></path> <path d="M 47.796875 52 L 47.796875 39.015625 L 42.625 39.015625 Q 42.390625 42.875 40.484375 44.78125 Q 38.578125 46.6875 34.90625 46.6875 Q 28.265625 46.6875 24.71875 42.09375 Q 21.1875 37.5 21.1875 28.90625 L 21.1875 5.171875 L 31.59375 5.171875 L 31.59375 0 L 4.109375 0 L 4.109375 5.171875 L 12.203125 5.171875 L 12.203125 46.78125 L 3.609375 46.78125 L 3.609375 51.90625 L 21.1875 51.90625 L 21.1875 42.671875 Q 23.828125 48.09375 27.96875 50.703125 Q 32.125 53.328125 38.09375 53.328125 Q 40.28125 53.328125 42.703125 52.984375 Q 45.125 52.640625 47.796875 52 z
" id="DejaVuSerif-114"></path> <path d="M 9.71875 68.015625 Q 9.71875 70.265625 11.34375 71.921875 Q 12.984375 73.578125 15.28125 73.578125 Q 17.53125 73.578125 19.15625 71.921875 Q 20.796875 70.265625 20.796875 68.015625 Q 20.796875 65.71875 19.1875 64.109375 Q 17.578125 62.5 15.28125 62.5 Q 12.984375 62.5 11.34375 64.109375 Q 9.71875 65.71875 9.71875 68.015625 z
M 21.1875 5.171875 L 29.6875 5.171875 L 29.6875 0 L 3.609375 0 L 3.609375 5.171875 L 12.203125 5.171875 L 12.203125 46.6875 L 3.609375 46.6875 L 3.609375 51.90625 L 21.1875 51.90625 z
" id="DejaVuSerif-105"></path> <path d="M 30.078125 3.421875 Q 37.3125 3.421875 40.984375 9.125 Q 44.671875 14.84375 44.671875 25.984375 Q 44.671875 37.109375 40.984375 42.796875 Q 37.3125 48.484375 30.078125 48.484375 Q 22.859375 48.484375 19.171875 42.796875 Q 15.484375 37.109375 15.484375 25.984375 Q 15.484375 14.84375 19.1875 9.125 Q 22.90625 3.421875 30.078125 3.421875 z
M 30.078125 -1.421875 Q 18.75 -1.421875 11.859375 6.078125 Q 4.984375 13.578125 4.984375 25.984375 Q 4.984375 38.375 11.84375 45.84375 Q 18.703125 53.328125 30.078125 53.328125 Q 41.453125 53.328125 48.3125 45.84375 Q 55.171875 38.375 55.171875 25.984375 Q 55.171875 13.578125 48.3125 6.078125 Q 41.453125 -1.421875 30.078125 -1.421875 z
" id="DejaVuSerif-111"></path> <path d="M 52.484375 5.171875 L 61.078125 5.171875 L 61.078125 0 L 43.5 0 L 43.5 8.109375 Q 40.875 3.21875 36.796875 0.890625 Q 32.71875 -1.421875 26.703125 -1.421875 Q 17.140625 -1.421875 11.0625 6.171875 Q 4.984375 13.765625 4.984375 25.984375 Q 4.984375 38.1875 11.03125 45.75 Q 17.09375 53.328125 26.703125 53.328125 Q 32.71875 53.328125 36.796875 51 Q 40.875 48.6875 43.5 43.796875 L 43.5 70.796875 L 35.015625 70.796875 L 35.015625 75.984375 L 52.484375 75.984375 z
M 43.5 23.390625 L 43.5 28.515625 Q 43.5 37.84375 39.90625 42.765625 Q 36.328125 47.703125 29.5 47.703125 Q 22.5625 47.703125 19.015625 42.234375 Q 15.484375 36.765625 15.484375 25.984375 Q 15.484375 15.234375 19.015625 9.71875 Q 22.5625 4.203125 29.5 4.203125 Q 36.328125 4.203125 39.90625 9.109375 Q 43.5 14.015625 43.5 23.390625 z
" id="DejaVuSerif-100"></path> <path id="DejaVuSerif-32"></path> <path d="M 31.890625 -15.578125 Q 20.015625 -10.25 13.953125 1.296875 Q 7.90625 12.84375 7.90625 30.171875 Q 7.90625 47.5625 13.953125 59.109375 Q 20.015625 70.65625 31.890625 75.984375 L 31.890625 71.1875 Q 24.359375 66.015625 21.09375 56.609375 Q 17.828125 47.21875 17.828125 30.171875 Q 17.828125 13.1875 21.09375 3.78125 Q 24.359375 -5.609375 31.890625 -10.796875 z
" id="DejaVuSerif-40"></path> <path d="M 39.796875 16.3125 L 39.796875 27.296875 L 28.21875 27.296875 Q 21.53125 27.296875 18.25 24.40625 Q 14.984375 21.53125 14.984375 15.578125 Q 14.984375 10.15625 18.296875 6.984375 Q 21.625 3.8125 27.296875 3.8125 Q 32.90625 3.8125 36.34375 7.28125 Q 39.796875 10.75 39.796875 16.3125 z
M 48.78125 32.421875 L 48.78125 5.171875 L 56.78125 5.171875 L 56.78125 0 L 39.796875 0 L 39.796875 5.609375 Q 36.8125 2 32.90625 0.28125 Q 29 -1.421875 23.78125 -1.421875 Q 15.140625 -1.421875 10.0625 3.171875 Q 4.984375 7.765625 4.984375 15.578125 Q 4.984375 23.640625 10.796875 28.078125 Q 16.609375 32.515625 27.203125 32.515625 L 39.796875 32.515625 L 39.796875 36.078125 Q 39.796875 42 36.203125 45.234375 Q 32.625 48.484375 26.125 48.484375 Q 20.75 48.484375 17.578125 46.046875 Q 14.40625 43.609375 13.625 38.8125 L 8.984375 38.8125 L 8.984375 49.3125 Q 13.671875 51.3125 18.09375 52.3125 Q 22.515625 53.328125 26.703125 53.328125 Q 37.5 53.328125 43.140625 47.96875 Q 48.78125 42.625 48.78125 32.421875 z
" id="DejaVuSerif-97"></path> <path d="M 21.578125 -9.515625 L 25 -0.875 L 5.609375 46.6875 L -0.296875 46.6875 L -0.296875 51.90625 L 23.578125 51.90625 L 23.578125 46.6875 L 15.28125 46.6875 L 29.890625 10.984375 L 44.484375 46.6875 L 36.71875 46.6875 L 36.71875 51.90625 L 56.203125 51.90625 L 56.203125 46.6875 L 50.390625 46.6875 L 26.609375 -11.71875 Q 24.171875 -17.78125 21.1875 -20 Q 18.21875 -22.21875 12.796875 -22.21875 Q 10.5 -22.21875 8.078125 -21.828125 Q 5.671875 -21.4375 3.21875 -20.703125 L 3.21875 -10.796875 L 7.8125 -10.796875 Q 8.109375 -14.109375 9.5 -15.546875 Q 10.890625 -17 13.8125 -17 Q 16.5 -17 18.140625 -15.5 Q 19.78125 -14.015625 21.578125 -9.515625 z
" id="DejaVuSerif-121"></path> <path d="M 5.609375 2.875 L 5.609375 14.984375 L 10.796875 14.984375 Q 10.984375 9.1875 14.421875 6.296875 Q 17.875 3.421875 24.609375 3.421875 Q 30.671875 3.421875 33.84375 5.6875 Q 37.015625 7.953125 37.015625 12.3125 Q 37.015625 15.71875 34.6875 17.8125 Q 32.375 19.921875 24.90625 22.3125 L 18.40625 24.515625 Q 11.71875 26.65625 8.71875 29.875 Q 5.71875 33.109375 5.71875 38.09375 Q 5.71875 45.21875 10.9375 49.265625 Q 16.15625 53.328125 25.390625 53.328125 Q 29.5 53.328125 34.03125 52.25 Q 38.578125 51.171875 43.40625 49.125 L 43.40625 37.796875 L 38.234375 37.796875 Q 38.03125 42.828125 34.703125 45.65625 Q 31.390625 48.484375 25.6875 48.484375 Q 20.015625 48.484375 17.109375 46.484375 Q 14.203125 44.484375 14.203125 40.484375 Q 14.203125 37.203125 16.40625 35.21875 Q 18.609375 33.25 25.203125 31.203125 L 32.328125 29 Q 39.703125 26.703125 42.9375 23.265625 Q 46.1875 19.828125 46.1875 14.40625 Q 46.1875 7.03125 40.546875 2.796875 Q 34.90625 -1.421875 25 -1.421875 Q 19.96875 -1.421875 15.1875 -0.34375 Q 10.40625 0.734375 5.609375 2.875 z
" id="DejaVuSerif-115"></path> <path d="M 7.078125 -15.578125 L 7.078125 -10.796875 Q 14.59375 -5.609375 17.890625 3.78125 Q 21.1875 13.1875 21.1875 30.171875 Q 21.1875 47.21875 17.890625 56.609375 Q 14.59375 66.015625 7.078125 71.1875 L 7.078125 75.984375 Q 19 70.65625 25.046875 59.109375 Q 31.109375 47.5625 31.109375 30.171875 Q 31.109375 12.84375 25.046875 1.296875 Q 19 -10.25 7.078125 -15.578125 z
" id="DejaVuSerif-41"></path> </defs> <g transform="translate(308.238906 407.051875)scale(0.3 -0.3)"> <use xlink:href="#DejaVuSerif-80"></use> <use x="67.222656" xlink:href="#DejaVuSerif-101"></use> <use x="126.402344" xlink:href="#DejaVuSerif-114"></use> <use x="174.205078" xlink:href="#DejaVuSerif-105"></use> <use x="206.1875" xlink:href="#DejaVuSerif-111"></use> <use x="266.392578" xlink:href="#DejaVuSerif-100"></use> <use x="330.40625" xlink:href="#DejaVuSerif-32"></use> <use x="362.193359" xlink:href="#DejaVuSerif-40"></use> <use x="401.207031" xlink:href="#DejaVuSerif-100"></use> <use x="465.220703" xlink:href="#DejaVuSerif-97"></use> <use x="524.839844" xlink:href="#DejaVuSerif-121"></use> <use x="581.333984" xlink:href="#DejaVuSerif-115"></use> <use x="632.652344" xlink:href="#DejaVuSerif-41"></use> </g> </g> </g> <g id="matplotlib.axis_2"> <g id="ytick_1"> <g id="line2d_6"> <defs> <path d="M 0 0 L -3.5 0 " id="m90348faf1e" style="stroke:#000000;stroke-width:0.8;"></path> </defs> <g> <use style="stroke:#000000;stroke-width:0.8;" x="92.189688" xlink:href="#m90348faf1e" y="346.157812"></use> </g> </g> <g id="text_7">  <defs> <path d="M 9.421875 5.078125 Q 9.421875 7.8125 11.28125 9.71875 Q 13.140625 11.625 15.921875 11.625 Q 18.609375 11.625 20.5 9.71875 Q 22.40625 7.8125 22.40625 5.078125 Q 22.40625 2.390625 20.5 0.484375 Q 18.609375 -1.421875 15.921875 -1.421875 Q 13.140625 -1.421875 11.28125 0.453125 Q 9.421875 2.34375 9.421875 5.078125 z
" id="DejaVuSerif-46"></path> </defs> <g transform="translate(40.660938 356.795625)scale(0.28 -0.28)"> <use xlink:href="#DejaVuSerif-48"></use> <use x="63.623047" xlink:href="#DejaVuSerif-46"></use> <use x="95.410156" xlink:href="#DejaVuSerif-48"></use> </g> </g> </g> <g id="ytick_2"> <g id="line2d_7"> <g> <use style="stroke:#000000;stroke-width:0.8;" x="92.189688" xlink:href="#m90348faf1e" y="280.493812"></use> </g> </g> <g id="text_8">  <g transform="translate(40.660938 291.131625)scale(0.28 -0.28)"> <use xlink:href="#DejaVuSerif-48"></use> <use x="63.623047" xlink:href="#DejaVuSerif-46"></use> <use x="95.410156" xlink:href="#DejaVuSerif-50"></use> </g> </g> </g> <g id="ytick_3"> <g id="line2d_8"> <g> <use style="stroke:#000000;stroke-width:0.8;" x="92.189688" xlink:href="#m90348faf1e" y="214.829812"></use> </g> </g> <g id="text_9">  <g transform="translate(40.660938 225.467625)scale(0.28 -0.28)"> <use xlink:href="#DejaVuSerif-48"></use> <use x="63.623047" xlink:href="#DejaVuSerif-46"></use> <use x="95.410156" xlink:href="#DejaVuSerif-52"></use> </g> </g> </g> <g id="ytick_4"> <g id="line2d_9"> <g> <use style="stroke:#000000;stroke-width:0.8;" x="92.189688" xlink:href="#m90348faf1e" y="149.165812"></use> </g> </g> <g id="text_10">  <g transform="translate(40.660938 159.803625)scale(0.28 -0.28)"> <use xlink:href="#DejaVuSerif-48"></use> <use x="63.623047" xlink:href="#DejaVuSerif-46"></use> <use x="95.410156" xlink:href="#DejaVuSerif-54"></use> </g> </g> </g> <g id="ytick_5"> <g id="line2d_10"> <g> <use style="stroke:#000000;stroke-width:0.8;" x="92.189688" xlink:href="#m90348faf1e" y="83.501812"></use> </g> </g> <g id="text_11">  <g transform="translate(40.660938 94.139625)scale(0.28 -0.28)"> <use xlink:href="#DejaVuSerif-48"></use> <use x="63.623047" xlink:href="#DejaVuSerif-46"></use> <use x="95.410156" xlink:href="#DejaVuSerif-56"></use> </g> </g> </g> <g id="ytick_6"> <g id="line2d_11"> <g> <use style="stroke:#000000;stroke-width:0.8;" x="92.189688" xlink:href="#m90348faf1e" y="17.837812"></use> </g> </g> <g id="text_12">  <g transform="translate(40.660938 28.475625)scale(0.28 -0.28)"> <use xlink:href="#DejaVuSerif-49"></use> <use x="63.623047" xlink:href="#DejaVuSerif-46"></use> <use x="95.410156" xlink:href="#DejaVuSerif-48"></use> </g> </g> </g> <g id="text_13">  <defs> <path d="M 5.515625 0 L 5.515625 5.171875 L 14.796875 5.171875 L 14.796875 67.671875 L 5.515625 67.671875 L 5.515625 72.90625 L 33.984375 72.90625 L 33.984375 67.671875 L 24.703125 67.671875 L 24.703125 6 L 58.015625 6 L 58.015625 18.21875 L 64.015625 18.21875 L 64.015625 0 z
" id="DejaVuSerif-76"></path> <path d="M 51.8125 41.796875 Q 54.390625 47.515625 58.421875 50.421875 Q 62.453125 53.328125 67.828125 53.328125 Q 75.984375 53.328125 79.984375 48.265625 Q 83.984375 43.21875 83.984375 33.015625 L 83.984375 5.171875 L 92.09375 5.171875 L 92.09375 0 L 67.1875 0 L 67.1875 5.171875 L 75 5.171875 L 75 31.984375 Q 75 39.9375 72.65625 43.3125 Q 70.3125 46.6875 64.890625 46.6875 Q 58.890625 46.6875 55.734375 42.140625 Q 52.59375 37.59375 52.59375 28.90625 L 52.59375 5.171875 L 60.40625 5.171875 L 60.40625 0 L 35.796875 0 L 35.796875 5.171875 L 43.609375 5.171875 L 43.609375 32.328125 Q 43.609375 40.09375 41.265625 43.390625 Q 38.921875 46.6875 33.5 46.6875 Q 27.484375 46.6875 24.328125 42.140625 Q 21.1875 37.59375 21.1875 28.90625 L 21.1875 5.171875 L 29 5.171875 L 29 0 L 4.109375 0 L 4.109375 5.171875 L 12.203125 5.171875 L 12.203125 46.78125 L 3.609375 46.78125 L 3.609375 51.90625 L 21.1875 51.90625 L 21.1875 42.671875 Q 23.6875 47.859375 27.53125 50.59375 Q 31.390625 53.328125 36.28125 53.328125 Q 42.328125 53.328125 46.375 50.3125 Q 50.4375 47.3125 51.8125 41.796875 z
" id="DejaVuSerif-109"></path> <path d="M 11.53125 5.171875 L 11.53125 70.796875 L 2.875 70.796875 L 2.875 75.984375 L 20.515625 75.984375 L 20.515625 43.796875 Q 23.140625 48.6875 27.21875 51 Q 31.296875 53.328125 37.3125 53.328125 Q 46.875 53.328125 52.921875 45.75 Q 58.984375 38.1875 58.984375 25.984375 Q 58.984375 13.765625 52.921875 6.171875 Q 46.875 -1.421875 37.3125 -1.421875 Q 31.296875 -1.421875 27.21875 0.890625 Q 23.140625 3.21875 20.515625 8.109375 L 20.515625 0 L 2.875 0 L 2.875 5.171875 z
M 20.515625 23.390625 Q 20.515625 14.015625 24.09375 9.109375 Q 27.6875 4.203125 34.515625 4.203125 Q 41.40625 4.203125 44.9375 9.71875 Q 48.484375 15.234375 48.484375 25.984375 Q 48.484375 36.765625 44.9375 42.234375 Q 41.40625 47.703125 34.515625 47.703125 Q 27.6875 47.703125 24.09375 42.765625 Q 20.515625 37.84375 20.515625 28.515625 z
" id="DejaVuSerif-98"></path> <path d="M 4.390625 30.609375 L 29.390625 30.609375 L 29.390625 23 L 4.390625 23 z
" id="DejaVuSerif-45"></path> <path d="M 9.28125 3.515625 L 9.28125 20.125 L 14.890625 20.0625 Q 15.140625 11.765625 19.703125 7.78125 Q 24.265625 3.8125 33.59375 3.8125 Q 42.28125 3.8125 46.84375 7.25 Q 51.421875 10.6875 51.421875 17.28125 Q 51.421875 22.5625 48.65625 25.390625 Q 45.90625 28.21875 37.015625 30.90625 L 27.390625 33.796875 Q 16.9375 36.96875 12.671875 41.703125 Q 8.40625 46.4375 8.40625 54.6875 Q 8.40625 63.96875 14.984375 69.09375 Q 21.578125 74.21875 33.5 74.21875 Q 38.578125 74.21875 44.625 73.109375 Q 50.6875 72.015625 57.515625 69.921875 L 57.515625 54.390625 L 52 54.390625 Q 51.171875 62.109375 46.84375 65.546875 Q 42.53125 69 33.6875 69 Q 25.984375 69 21.953125 65.84375 Q 17.921875 62.703125 17.921875 56.6875 Q 17.921875 51.46875 20.9375 48.484375 Q 23.96875 45.515625 33.796875 42.578125 L 42.828125 39.890625 Q 52.734375 36.921875 56.953125 32.296875 Q 61.1875 27.6875 61.1875 19.921875 Q 61.1875 9.328125 54.390625 3.953125 Q 47.609375 -1.421875 34.1875 -1.421875 Q 28.171875 -1.421875 21.9375 -0.1875 Q 15.71875 1.03125 9.28125 3.515625 z
" id="DejaVuSerif-83"></path> <path d="M 51.421875 15.578125 Q 49.515625 7.28125 44.09375 2.921875 Q 38.671875 -1.421875 30.078125 -1.421875 Q 18.75 -1.421875 11.859375 6.078125 Q 4.984375 13.578125 4.984375 25.984375 Q 4.984375 38.421875 11.859375 45.875 Q 18.75 53.328125 30.078125 53.328125 Q 35.015625 53.328125 39.890625 52.171875 Q 44.78125 51.03125 49.703125 48.6875 L 49.703125 35.40625 L 44.484375 35.40625 Q 43.453125 42.234375 40.015625 45.359375 Q 36.578125 48.484375 30.171875 48.484375 Q 22.90625 48.484375 19.1875 42.84375 Q 15.484375 37.203125 15.484375 25.984375 Q 15.484375 14.75 19.171875 9.078125 Q 22.859375 3.421875 30.171875 3.421875 Q 35.984375 3.421875 39.453125 6.4375 Q 42.921875 9.46875 44.1875 15.578125 z
" id="DejaVuSerif-99"></path> <path d="M 52.484375 46.6875 L 52.484375 1.125 Q 52.484375 -10.0625 46.328125 -16.140625 Q 40.1875 -22.21875 28.8125 -22.21875 Q 23.6875 -22.21875 19 -21.28125 Q 14.3125 -20.359375 10.015625 -18.5 L 10.015625 -7.625 L 14.703125 -7.625 Q 15.578125 -12.703125 18.84375 -15.046875 Q 22.125 -17.390625 28.21875 -17.390625 Q 36.140625 -17.390625 39.8125 -12.921875 Q 43.5 -8.453125 43.5 1.125 L 43.5 8.109375 Q 40.875 3.21875 36.796875 0.890625 Q 32.71875 -1.421875 26.703125 -1.421875 Q 17.140625 -1.421875 11.0625 6.171875 Q 4.984375 13.765625 4.984375 25.984375 Q 4.984375 38.1875 11.03125 45.75 Q 17.09375 53.328125 26.703125 53.328125 Q 32.71875 53.328125 36.796875 51 Q 40.875 48.6875 43.5 43.796875 L 43.5 51.90625 L 61.078125 51.90625 L 61.078125 46.6875 z
M 43.5 28.515625 Q 43.5 37.84375 39.90625 42.765625 Q 36.328125 47.703125 29.5 47.703125 Q 22.5625 47.703125 19.015625 42.234375 Q 15.484375 36.765625 15.484375 25.984375 Q 15.484375 15.234375 19.015625 9.71875 Q 22.5625 4.203125 29.5 4.203125 Q 36.328125 4.203125 39.90625 9.109375 Q 43.5 14.015625 43.5 23.390625 z
" id="DejaVuSerif-103"></path> <path d="M 20.515625 5.171875 L 29 5.171875 L 29 0 L 2.875 0 L 2.875 5.171875 L 11.53125 5.171875 L 11.53125 70.796875 L 2.875 70.796875 L 2.875 75.984375 L 20.515625 75.984375 z
" id="DejaVuSerif-108"></path> <path d="M 48 51.90625 L 61.28125 11.375 L 73 46.6875 L 65.484375 46.6875 L 65.484375 51.90625 L 84.28125 51.90625 L 84.28125 46.6875 L 78.515625 46.6875 L 63.09375 0 L 55.609375 0 L 42.828125 38.8125 L 29.984375 0 L 22.796875 0 L 7.421875 46.6875 L 1.609375 46.6875 L 1.609375 51.90625 L 25.09375 51.90625 L 25.09375 46.6875 L 16.703125 46.6875 L 28.328125 11.375 L 41.703125 51.90625 z
" id="DejaVuSerif-119"></path> </defs> <g transform="translate(29.995313 340.718906)rotate(-90)scale(0.3 -0.3)"> <use xlink:href="#DejaVuSerif-76"></use> <use x="66.40625" xlink:href="#DejaVuSerif-111"></use> <use x="126.611328" xlink:href="#DejaVuSerif-109"></use> <use x="221.435547" xlink:href="#DejaVuSerif-98"></use> <use x="285.449219" xlink:href="#DejaVuSerif-45"></use> <use x="319.238281" xlink:href="#DejaVuSerif-83"></use> <use x="387.744141" xlink:href="#DejaVuSerif-99"></use> <use x="443.75" xlink:href="#DejaVuSerif-97"></use> <use x="503.369141" xlink:href="#DejaVuSerif-114"></use> <use x="551.171875" xlink:href="#DejaVuSerif-103"></use> <use x="615.185547" xlink:href="#DejaVuSerif-108"></use> <use x="647.167969" xlink:href="#DejaVuSerif-101"></use> <use x="706.347656" xlink:href="#DejaVuSerif-32"></use> <use x="738.134766" xlink:href="#DejaVuSerif-80"></use> <use x="805.357422" xlink:href="#DejaVuSerif-111"></use> <use x="865.5625" xlink:href="#DejaVuSerif-119"></use> <use x="951.158203" xlink:href="#DejaVuSerif-101"></use> <use x="1010.337891" xlink:href="#DejaVuSerif-114"></use> </g> </g> </g> <g id="line2d_12"> <path clip-path="url(#p968a080cf3)" d="M 92.189688 319.282761 L 725.789688 319.282761 " style="fill:none;stroke:#000000;stroke-dasharray:1.5,2.475;stroke-dashoffset:0;stroke-width:1.5;"></path> </g> <g id="line2d_13"> <path clip-path="url(#p968a080cf3)" d="M 751.804687 335.933662 L 721.316098 340.118761 L 676.489387 344.257415 L 637.513547 345.23974 L 603.313254 342.411702 L 573.061482 339.595415 L 546.111748 340.233679 L 521.951396 342.291354 L 500.168669 341.019162 L 462.457977 332.130698 L 446.027954 331.197498 L 430.948913 334.87097 L 417.060804 338.961911 L 404.227899 340.642778 L 392.334338 342.671532 L 381.280627 344.320087 L 370.980841 341.823532 L 361.360391 335.689916 L 352.354214 331.496926 L 343.905296 334.311158 L 335.963469 341.84934 L 328.48441 345.051705 L 321.428818 334.877548 L 314.761716 315.991477 L 308.451878 305.75106 L 302.471337 310.215099 L 296.794971 324.735917 L 291.400149 339.738719 L 286.266432 345.664645 L 281.375311 342.791245 L 276.709987 337.310895 L 272.255178 334.66147 L 267.996949 334.49343 L 263.922569 331.351221 L 260.020383 326.167773 L 256.279701 323.663783 L 252.6907 326.32489 L 245.932275 341.630717 L 242.746813 345.023003 L 239.680829 344.996418 L 236.727725 341.885114 L 233.881379 336.646992 L 231.136105 331.159344 L 228.486614 328.602285 L 225.927978 332.101195 L 223.455604 339.020617 L 221.0652 343.930219 L 218.752758 346.078933 L 216.514523 340.69328 L 214.346981 315.025004 L 212.246835 266.59526 L 210.210989 197.28287 L 208.236535 121.737465 L 206.320736 93.395801 L 204.461019 98.768876 L 202.654954 118.439571 L 200.900255 187.05222 L 199.19476 283.974385 L 197.536428 329.173913 L 195.92333 326.702032 L 194.353639 316.345599 L 192.825628 318.761837 L 191.337656 332.266152 L 189.888172 342.519724 L 188.475701 344.151642 L 187.098844 339.883565 L 183.16897 324.591889 L 181.921898 326.150004 L 180.704405 332.404886 L 179.51545 336.310466 L 177.219233 336.847363 L 176.110121 339.449089 L 175.025843 342.900071 L 173.965574 342.842606 L 172.928526 337.606839 L 171.913943 334.505207 L 170.921103 337.961168 L 169.949315 344.113512 L 168.997917 344.628848 L 168.066272 332.597058 L 167.153774 315.272269 L 166.259836 307.049299 L 165.383899 313.126987 L 164.525425 329.654028 L 163.683895 343.588861 L 162.858815 345.680391 L 162.049705 342.255656 L 161.256106 341.28788 L 160.477578 343.717675 L 159.713694 344.177635 L 158.228237 335.028414 L 157.505891 333.988783 L 156.796639 335.606235 L 156.10013 332.601046 L 155.416023 322.677689 L 154.743989 315.05297 L 154.083712 316.65107 L 153.434886 326.764228 L 152.797215 339.218509 L 152.170415 345.523916 L 151.554209 344.357019 L 150.948332 341.157988 L 150.352526 340.28557 L 149.190138 343.622297 L 148.065149 344.577532 L 147.516119 345.386303 L 146.975782 345.398845 L 146.443933 343.719208 L 145.404909 338.242299 L 144.897357 330.31407 L 144.397534 310.357165 L 143.905266 282.974852 L 143.420382 270.0331 L 142.942718 288.34827 L 142.472113 319.381894 L 142.008413 333.741096 L 141.551467 333.603671 L 141.101127 330.331867 L 140.657252 329.703872 L 140.219703 333.583568 L 139.788347 339.851358 L 139.363052 343.47456 L 138.943692 342.124132 L 138.530143 338.812398 L 138.122286 337.356989 L 137.720003 337.593382 L 137.323182 338.694987 L 136.164396 344.397191 L 135.788344 345.660314 L 135.41723 345.567772 L 135.050957 345.093749 L 134.68943 345.333678 L 134.332559 345.931084 L 133.980253 345.134903 L 133.632427 341.703555 L 132.949872 332.036011 L 132.614981 330.405751 L 132.284241 330.748225 L 131.957577 331.912638 L 131.634913 335.279835 L 131.001295 343.677848 L 130.6902 343.591651 L 130.0791 338.04273 L 129.778964 339.342976 L 129.189202 345.112949 L 128.899455 343.450461 L 128.329934 337.370198 L 128.050045 338.233903 L 127.49974 344.761443 L 127.229216 346.059773 L 126.961709 345.486214 L 126.176795 340.538176 L 125.920866 340.5972 L 125.667714 341.188673 L 125.417294 340.598525 L 125.169562 339.338591 L 124.924474 339.49534 L 124.442067 345.434562 L 124.204666 345.455354 L 123.737269 334.775161 L 123.507197 333.560611 L 123.054121 343.411939 L 122.831045 342.775594 L 122.610229 333.081036 L 121.961011 291.651591 L 121.748904 284.742295 L 121.538894 283.072585 L 121.33095 288.065544 L 120.519234 336.732089 L 120.321176 332.879571 L 120.12501 326.887042 L 119.930709 325.535669 L 119.738247 329.503093 L 119.171637 345.701967 L 118.986276 345.010044 L 118.440381 331.203866 L 118.261734 333.823859 L 117.909284 343.31332 L 117.735437 344.81798 L 117.563147 344.761051 L 117.223155 346.132012 L 117.055412 345.06378 L 116.724334 339.55681 L 116.560961 340.660369 L 116.238452 345.069324 L 115.765011 333.905642 L 115.30354 345.166226 L 115.00232 337.585988 L 114.85359 337.727775 L 114.559812 344.537411 L 114.414735 345.503872 L 114.270845 345.359912 L 113.986569 345.932112 L 113.846156 344.25471 L 113.568708 339.444781 L 113.431647 341.028505 L 113.160783 345.099216 L 112.762444 337.971628 L 112.373357 346.056976 L 111.993204 344.579885 L 111.868418 344.688603 L 111.744581 344.000835 L 111.499706 340.038812 L 111.139238 332.485879 L 111.020866 334.296827 L 110.786741 342.940524 L 110.670968 342.092839 L 110.328695 331.062428 L 109.9938 345.830927 L 109.883767 345.749042 L 109.558346 343.651086 L 109.239767 332.893634 L 109.135058 333.674709 L 108.825273 344.022524 L 108.723434 343.435995 L 108.521846 341.480703 L 108.422083 341.628083 L 108.224584 342.726965 L 108.126835 342.42147 L 107.837504 338.498695 L 107.647818 343.320068 L 107.553916 345.452082 L 107.460633 345.243417 L 107.275901 341.822719 L 107.184439 342.519968 L 107.003295 345.470808 L 106.913602 344.73764 L 106.735944 341.493822 L 106.647968 341.945642 L 106.387389 344.567211 L 106.131721 343.519871 L 105.963936 344.272026 L 105.5535 346.073953 L 105.472923 346.01548 L 105.234125 344.210946 L 104.999639 345.182624 L 104.845653 344.508271 L 104.769349 344.611692 L 104.543142 346.138553 L 104.468629 346.127474 L 104.320912 345.955716 L 104.174917 344.705876 L 103.88797 339.538071 L 103.817263 340.121635 L 103.538448 345.490381 L 103.333457 343.753174 L 103.131898 346.145208 L 103.06546 345.831033 L 102.868345 343.917892 L 102.674468 345.914541 L 102.610548 345.361878 L 102.483749 343.135013 L 102.420865 343.293271 L 102.296112 344.982582 L 102.111482 340.172951 L 102.050595 340.95289 L 101.869865 345.909201 L 101.691978 344.585135 L 101.459104 345.826562 L 101.344471 346.064512 L 101.231015 345.550108 L 101.174724 345.266196 L 101.11872 345.361792 L 101.007566 346.031056 L 100.897537 343.87504 L 100.788616 340.03781 L 100.734566 340.169642 L 100.57403 345.475412 L 100.521051 344.726067 L 100.415878 342.068173 L 100.36368 342.590536 L 100.208622 345.43332 L 100.10651 344.866472 L 99.955194 346.056659 L 99.905242 345.87358 L 99.610524 343.162206 L 99.56222 343.676984 L 99.324101 346.09499 L 99.183891 346.105813 L 99.091502 345.084747 L 98.954514 342.915735 L 98.819405 346.028099 L 98.730357 345.564718 L 98.686137 345.322613 L 98.642117 345.4433 L 98.598296 345.621701 L 98.554672 345.548402 L 98.511245 345.423788 L 98.468013 345.601972 L 98.382129 346.150345 L 98.339475 345.754788 L 98.212645 344.13284 L 98.170742 344.440651 L 98.08749 345.249228 L 98.046138 345.199753 L 97.923166 343.960097 L 97.882532 344.214498 L 97.801793 345.283836 L 97.761685 345.220392 L 97.524636 340.199984 L 97.446963 336.216419 L 97.408374 336.635367 L 97.180236 345.947682 L 97.142769 346.048119 L 97.105459 345.988074 L 96.70509 341.06054 L 96.669581 341.752069 L 96.563919 345.963237 L 96.494186 344.848837 L 96.459531 344.2488 L 96.425014 344.534311 L 96.356395 346.006323 L 96.32229 345.699874 L 96.220789 343.429535 L 96.187222 343.832202 L 96.021365 345.6068 L 95.955929 345.351151 L 95.858727 344.621197 L 95.826577 344.782877 L 95.730871 346.09252 L 95.699214 345.315198 L 95.636264 343.481852 L 95.604969 344.119242 L 95.542737 346.132769 L 95.511799 345.494582 L 95.358853 339.431532 L 95.328609 339.441517 L 95.26846 341.005129 L 95.179075 343.64471 L 95.120038 342.732941 L 95.061438 341.98781 L 95.003268 340.812076 L 94.974344 341.690682 L 94.916813 343.702865 L 94.859702 342.186435 L 94.831302 342.095152 L 94.71873 346.101986 L 94.663051 345.48807 L 94.55289 343.132853 L 94.390571 343.278299 L 94.284258 346.144853 L 94.231661 345.215303 L 94.17943 343.941276 L 94.127562 345.056707 L 94.101763 345.76927 L 94.050433 344.89001 L 94.024901 344.1325 L 93.9741 344.942759 L 93.923648 345.707001 L 93.848614 345.650974 L 93.823774 345.721003 L 93.749756 342.859607 L 93.700828 344.654252 L 93.652229 346.03337 L 93.579941 345.940822 L 93.508375 344.229608 L 93.461061 345.059544 L 93.437521 345.588897 L 93.414059 345.151109 L 93.367368 343.26184 L 93.320984 344.804648 L 93.297906 345.026178 L 93.274904 344.23908 L 93.229124 342.891135 L 93.183643 344.804694 L 93.138457 345.784154 L 93.093564 344.456522 L 93.004642 339.286521 L 92.938698 341.729817 L 92.873383 344.383658 L 92.830185 342.85207 L 92.808688 342.592354 L 92.78726 343.434325 L 92.744606 345.505575 L 92.681127 343.324218 L 92.639139 345.394705 L 92.597413 343.37377 L 92.555946 340.826326 L 92.514736 343.40203 L 92.372491 345.757423 L 92.332408 346.092346 L 92.312459 345.410735 L 92.135617 340.691428 L 92.077729 341.085632 L 91.925877 344.874493 L 91.907148 344.164784 L 91.851292 338.789575 L 91.795927 343.63551 L 91.759287 344.484068 L 91.722861 343.050995 L 91.686646 342.379227 L 91.650641 343.608516 L 91.508683 345.724167 L 91.491166 346.110683 L 91.456283 344.744093 L 91.318719 340.128802 L 91.36994 345.17512 L 91.301741 340.805883 L 91.251094 345.431583 L 91.167621 343.993313 L 91.068976 345.049593 L 91.036456 344.704943 L 90.955935 343.109516 L 90.924034 344.065394 L 90.798152 345.365095 L 90.751643 345.812805 L 90.720845 346.143972 L 90.644568 345.771305 L 90.436294 341.652672 L 90.407161 343.454456 L 90.37818 346.116327 L 90.320666 342.259361 L 90.27792 345.667687 L 90.179453 342.784321 L 90.151641 344.21206 L 90.110189 345.822408 L 90.055408 344.163944 L 90.041799 343.82667 L 90.001177 345.146835 L 89.974265 345.732566 L 89.947488 343.509349 L 89.907572 339.304693 L 89.854813 345.253224 L 89.802574 345.849871 L 89.789594 345.264331 L 89.699625 342.537632 L 89.674202 344.084977 L 89.573733 345.848785 L 89.56131 345.711127 L 89.45084 343.373687 L 89.487399 346.134649 L 89.438712 343.502703 L 89.414541 344.996155 L 89.366543 342.577524 L 89.30718 344.989431 L 89.260189 346.146053 L 89.225233 344.998695 L 89.08782 341.666782 L 89.07654 342.172754 L 88.932218 346.139405 L 88.921292 346.13483 L 88.888661 344.930493 L 88.85625 342.750798 L 88.760313 343.230075 L 88.718287 346.06601 L 88.614831 345.957814 L 88.594411 346.10402 L 88.553837 345.321182 L 88.493633 343.923624 L 88.453928 344.957391 L 88.434203 346.133794 L 88.395007 343.030326 L 88.34648 345.067174 L 88.279402 344.499049 L 88.308028 345.837239 L 88.260418 345.329199 L 88.213306 346.121296 L 88.194599 344.378063 L 88.166685 338.716671 L 88.120547 345.960984 L 88.093093 345.212948 L 88.074885 345.882676 L 88.011742 343.942165 L 88.002796 343.237436 L 87.940678 345.96969 L 87.931876 345.87173 L 87.888132 343.99384 L 87.879437 344.208753 L 87.801956 346.07286 L 87.75951 342.341672 L 87.734244 345.505799 L 87.634665 344.75427 L 87.610135 339.054512 L 87.56957 345.754779 L 87.529396 345.312151 L 87.411172 342.897553 L 87.442367 346.142395 L 87.403411 343.862069 L 87.380215 346.062725 L 87.326601 341.772674 L 87.288737 345.390345 L 87.251226 346.110332 L 87.214065 344.517189 L 87.169924 346.117287 L 87.083097 342.096853 L 86.99116 346.089414 L 86.949452 344.881109 L 86.921896 342.181495 L 86.853862 345.109344 L 86.8404 344.658741 L 86.820296 345.932331 L 86.800299 343.138118 L 86.727871 340.962521 L 86.747485 345.71057 L 86.708358 344.599128 L 86.62497 346.101804 L 86.676063 342.503883 L 86.612306 343.251886 L 86.549636 346.153974 L 86.49414 338.222486 L 86.457609 346.112366 L 86.326761 342.687622 L 86.263105 340.842274 L 86.291897 346.108889 L 86.234548 345.865546 L 86.150258 344.198036 L 86.200586 346.058899 L 86.122611 345.58635 L 86.111615 346.056256 L 86.084278 342.447064 L 86.040988 344.226707 L 86.030252 344.442685 L 85.99294 345.672457 L 85.971803 341.297183 L 85.945567 343.273618 L 85.93513 341.70256 L 85.888565 346.043916 L 85.837582 343.3775 L 85.752686 336.155365 L 85.782398 346.136004 L 85.733028 342.584194 L 85.723244 344.990677 L 85.723244 344.990677 " style="fill:none;stroke:#000000;stroke-linecap:square;stroke-width:1.5;"></path> </g> <g id="patch_3"> <path d="M 92.189688 346.157812 L 92.189688 17.837812 " style="fill:none;stroke:#000000;stroke-linecap:square;stroke-linejoin:miter;stroke-width:0.8;"></path> </g> <g id="patch_4"> <path d="M 725.789688 346.157812 L 725.789688 17.837812 " style="fill:none;stroke:#000000;stroke-linecap:square;stroke-linejoin:miter;stroke-width:0.8;"></path> </g> <g id="patch_5"> <path d="M 92.189688 346.157812 L 725.789687 346.157812 " style="fill:none;stroke:#000000;stroke-linecap:square;stroke-linejoin:miter;stroke-width:0.8;"></path> </g> <g id="patch_6"> <path d="M 92.189688 17.837812 L 725.789687 17.837812 " style="fill:none;stroke:#000000;stroke-linecap:square;stroke-linejoin:miter;stroke-width:0.8;"></path> </g> </g> <g id="axes_2"> <g id="patch_7"> <path d="M 380.189687 164.717812 L 704.189687 164.717812 L 704.189687 35.117812 L 380.189687 35.117812 z
" style="fill:none;"></path> </g> <g id="matplotlib.axis_3"> <g id="xtick_6"> <g id="line2d_14"> <g> <use style="stroke:#000000;stroke-width:0.8;" x="471.280597" xlink:href="#mb33a8046c4" y="164.717812"></use> </g> </g> <g id="text_14">  <g transform="translate(462.373097 192.993437)scale(0.28 -0.28)"> <use xlink:href="#DejaVuSerif-49"></use> </g> </g> </g> <g id="xtick_7"> <g id="line2d_15"> <g> <use style="stroke:#000000;stroke-width:0.8;" x="580.371506" xlink:href="#mb33a8046c4" y="164.717812"></use> </g> </g> <g id="text_15">  <g transform="translate(571.464006 192.993437)scale(0.28 -0.28)"> <use xlink:href="#DejaVuSerif-50"></use> </g> </g> </g> <g id="xtick_8"> <g id="line2d_16"> <g> <use style="stroke:#000000;stroke-width:0.8;" x="689.462415" xlink:href="#mb33a8046c4" y="164.717812"></use> </g> </g> <g id="text_16">  <defs> <path d="M 9.71875 69.828125 Q 15.4375 71.96875 20.671875 73.09375 Q 25.921875 74.21875 30.515625 74.21875 Q 41.21875 74.21875 47.21875 69.59375 Q 53.21875 64.984375 53.21875 56.78125 Q 53.21875 50.203125 49.0625 45.78125 Q 44.921875 41.359375 37.3125 39.796875 Q 46.296875 38.53125 51.25 33.28125 Q 56.203125 28.03125 56.203125 19.671875 Q 56.203125 9.46875 49.34375 4.015625 Q 42.484375 -1.421875 29.59375 -1.421875 Q 23.875 -1.421875 18.421875 -0.1875 Q 12.984375 1.03125 7.625 3.515625 L 7.625 17.671875 L 13.09375 17.671875 Q 13.578125 10.640625 17.828125 7.03125 Q 22.078125 3.421875 29.78125 3.421875 Q 37.25 3.421875 41.578125 7.734375 Q 45.90625 12.0625 45.90625 19.578125 Q 45.90625 28.171875 41.453125 32.59375 Q 37.015625 37.015625 28.421875 37.015625 L 23.78125 37.015625 L 23.78125 42 L 26.21875 42 Q 34.765625 42 39.03125 45.53125 Q 43.3125 49.078125 43.3125 56.203125 Q 43.3125 62.59375 39.796875 65.984375 Q 36.28125 69.390625 29.6875 69.390625 Q 23.09375 69.390625 19.453125 66.265625 Q 15.828125 63.140625 15.1875 56.984375 L 9.71875 56.984375 z
" id="DejaVuSerif-51"></path> </defs> <g transform="translate(680.554915 192.993437)scale(0.28 -0.28)"> <use xlink:href="#DejaVuSerif-51"></use> </g> </g> </g> <g id="text_17">  <g transform="translate(475.0225 218.013437)scale(0.2 -0.2)"> <use xlink:href="#DejaVuSerif-80"></use> <use x="67.222656" xlink:href="#DejaVuSerif-101"></use> <use x="126.402344" xlink:href="#DejaVuSerif-114"></use> <use x="174.205078" xlink:href="#DejaVuSerif-105"></use> <use x="206.1875" xlink:href="#DejaVuSerif-111"></use> <use x="266.392578" xlink:href="#DejaVuSerif-100"></use> <use x="330.40625" xlink:href="#DejaVuSerif-32"></use> <use x="362.193359" xlink:href="#DejaVuSerif-40"></use> <use x="401.207031" xlink:href="#DejaVuSerif-100"></use> <use x="465.220703" xlink:href="#DejaVuSerif-97"></use> <use x="524.839844" xlink:href="#DejaVuSerif-121"></use> <use x="581.333984" xlink:href="#DejaVuSerif-115"></use> <use x="632.652344" xlink:href="#DejaVuSerif-41"></use> </g> </g> </g> <g id="matplotlib.axis_4"> <g id="ytick_7"> <g id="line2d_17"> <g> <use style="stroke:#000000;stroke-width:0.8;" x="380.189687" xlink:href="#m90348faf1e" y="119.286532"></use> </g> </g> <g id="text_18">  <defs> <path d="M 50.296875 72.90625 L 50.296875 64.890625 L 16.890625 64.890625 L 16.890625 44 Q 19.4375 45.75 22.828125 46.625 Q 26.21875 47.515625 30.421875 47.515625 Q 42.234375 47.515625 49.0625 40.96875 Q 55.90625 34.421875 55.90625 23.09375 Q 55.90625 11.53125 49 5.046875 Q 42.09375 -1.421875 29.59375 -1.421875 Q 24.5625 -1.421875 19.28125 -0.1875 Q 14.015625 1.03125 8.5 3.515625 L 8.5 17.671875 L 14.015625 17.671875 Q 14.453125 10.75 18.421875 7.078125 Q 22.40625 3.421875 29.59375 3.421875 Q 37.3125 3.421875 41.453125 8.5 Q 45.609375 13.578125 45.609375 23.09375 Q 45.609375 32.5625 41.484375 37.609375 Q 37.359375 42.671875 29.59375 42.671875 Q 25.203125 42.671875 21.84375 41.109375 Q 18.5 39.546875 15.921875 36.28125 L 11.71875 36.28125 L 11.71875 72.90625 z
" id="DejaVuSerif-53"></path> </defs> <g transform="translate(328.660937 129.924344)scale(0.28 -0.28)"> <use xlink:href="#DejaVuSerif-48"></use> <use x="63.623047" xlink:href="#DejaVuSerif-46"></use> <use x="95.410156" xlink:href="#DejaVuSerif-53"></use> </g> </g> </g> <g id="ytick_8"> <g id="line2d_18"> <g> <use style="stroke:#000000;stroke-width:0.8;" x="380.189687" xlink:href="#m90348faf1e" y="52.017127"></use> </g> </g> <g id="text_19">  <g transform="translate(328.660937 62.654939)scale(0.28 -0.28)"> <use xlink:href="#DejaVuSerif-49"></use> <use x="63.623047" xlink:href="#DejaVuSerif-46"></use> <use x="95.410156" xlink:href="#DejaVuSerif-48"></use> </g> </g> </g> <g id="text_20">  <defs> <path d="M 22.125 42.96875 L 56.59375 42.96875 L 56.59375 34.671875 L 22.125 34.671875 z
M 39.40625 66.21875 Q 28.65625 66.21875 22.359375 58.203125 Q 16.015625 50.203125 16.015625 36.375 Q 16.015625 22.609375 22.328125 14.59375 Q 28.65625 6.59375 39.40625 6.59375 Q 50.140625 6.59375 56.453125 14.59375 Q 62.703125 22.609375 62.703125 36.375 Q 62.703125 50.203125 56.453125 58.203125 Q 50.140625 66.21875 39.40625 66.21875 z
M 39.40625 74.21875 Q 54.734375 74.21875 63.90625 63.9375 Q 73.09375 53.65625 73.09375 36.375 Q 73.09375 19.140625 63.921875 8.890625 Q 54.734375 -1.421875 39.40625 -1.421875 Q 24.03125 -1.421875 14.84375 8.84375 Q 5.609375 19.09375 5.609375 36.375 Q 5.609375 53.65625 14.84375 63.96875 Q 24.03125 74.21875 39.40625 74.21875 z
" id="DejaVuSans-920"></path> </defs> <g transform="translate(320.501562 107.817812)rotate(-90)scale(0.2 -0.2)"> <use transform="translate(0 0.78125)" xlink:href="#DejaVuSans-920"></use> </g> </g> </g> <g id="line2d_19"> <path clip-path="url(#pab666afc14)" d="M 394.91696 42.881007 L 395.026051 46.246333 L 395.135142 56.168728 L 395.244233 45.06948 L 395.353324 49.135899 L 395.462415 48.878705 L 395.680597 43.072106 L 395.789688 47.60649 L 395.898778 42.244864 L 396.007869 42.430732 L 396.11696 46.350419 L 396.335142 45.295121 L 396.444233 45.613446 L 396.662415 46.668593 L 396.771506 46.38299 L 396.880597 43.133782 L 396.989688 43.206772 L 397.098778 43.418265 L 397.207869 43.267286 L 397.31696 87.489507 L 397.535142 44.39225 L 397.644233 45.661454 L 397.862415 53.000746 L 398.080597 44.036183 L 398.189688 48.537709 L 398.298778 42.805222 L 398.51696 54.479316 L 398.626051 44.632118 L 398.735142 47.931997 L 398.844233 44.775037 L 398.953324 48.279305 L 399.062415 45.18218 L 399.171506 46.35002 L 399.280597 45.449027 L 399.389688 43.298535 L 399.498778 44.24284 L 399.71696 50.4989 L 399.826051 85.881164 L 400.044233 44.005348 L 400.153324 48.809181 L 400.262415 43.321629 L 400.371506 44.035021 L 400.480597 46.652546 L 400.589688 46.398425 L 400.698778 44.774622 L 400.91696 46.92033 L 401.026051 43.882995 L 401.135142 49.713994 L 401.462415 44.807691 L 401.680597 42.714327 L 401.789688 53.70831 L 402.007869 42.741472 L 402.11696 45.604723 L 402.226051 44.433081 L 402.335142 46.587706 L 402.444233 45.671177 L 402.662415 49.027693 L 402.771506 44.580599 L 402.880597 52.743382 L 402.989688 44.327299 L 403.098778 49.41901 L 403.31696 42.209052 L 403.426051 44.785593 L 403.535142 50.164842 L 403.862415 44.857534 L 403.971506 47.404627 L 404.080597 45.170054 L 404.298778 48.107563 L 404.407869 78.357401 L 404.626051 46.089318 L 404.735142 44.669545 L 404.844233 47.834432 L 404.953324 43.265252 L 405.062415 48.18162 L 405.389688 43.420869 L 405.498778 43.559888 L 405.607869 46.327538 L 405.71696 45.902594 L 405.826051 46.87624 L 405.935142 43.844876 L 406.044233 45.439139 L 406.153324 42.6996 L 406.262415 42.880704 L 406.371506 42.726873 L 406.480597 46.289252 L 406.589688 42.853963 L 406.698778 44.47578 L 406.807869 42.823911 L 407.026051 45.212011 L 407.135142 46.444292 L 407.353324 71.104276 L 407.571506 47.579532 L 407.789688 43.473148 L 408.335142 48.589622 L 408.444233 48.78399 L 408.553324 46.023571 L 408.662415 48.197904 L 408.880597 43.408913 L 408.989688 47.295397 L 409.098778 46.506654 L 409.207869 43.452489 L 409.426051 45.294889 L 409.535142 45.194314 L 409.644233 46.192961 L 409.753324 45.670776 L 409.862415 46.884062 L 409.971506 43.356036 L 410.298778 47.777283 L 410.407869 47.27278 L 410.51696 46.42829 L 410.735142 49.833179 L 410.844233 45.774623 L 410.953324 49.523235 L 411.171506 46.358428 L 411.280597 44.21018 L 411.389688 65.212403 L 411.607869 44.986254 L 411.71696 48.016601 L 411.826051 45.880942 L 411.935142 46.684081 L 412.044233 44.305257 L 412.262415 47.339205 L 412.371506 44.949611 L 412.589688 50.210645 L 412.698778 48.900458 L 412.807869 49.43809 L 412.91696 46.803424 L 413.026051 48.353721 L 413.135142 47.726042 L 413.244233 45.133459 L 413.353324 46.506657 L 413.462415 45.42821 L 413.571506 46.927054 L 413.680597 42.462372 L 413.789688 43.621422 L 413.898778 47.082658 L 414.007869 42.991553 L 414.11696 44.743114 L 414.226051 43.178518 L 414.335142 46.096395 L 414.444233 45.482289 L 414.880597 66.694232 L 415.098778 50.937565 L 415.207869 45.174001 L 415.31696 48.701696 L 415.535142 47.331859 L 415.644233 47.457794 L 415.753324 56.138981 L 415.862415 52.090158 L 416.080597 52.490917 L 416.189688 51.743988 L 416.407869 48.913236 L 416.51696 48.836157 L 416.626051 48.899058 L 416.735142 48.561537 L 416.844233 45.326708 L 416.953324 48.847683 L 417.062415 43.349717 L 417.171506 43.355859 L 417.280597 43.778785 L 417.389688 43.555416 L 417.498778 46.071673 L 417.607869 51.633354 L 417.71696 43.925367 L 417.826051 44.199814 L 417.935142 42.137467 L 418.044233 42.279314 L 418.153324 43.837739 L 418.262415 43.263183 L 418.371506 45.891023 L 418.480597 51.988572 L 418.589688 46.752607 L 418.807869 51.338584 L 419.026051 43.747194 L 419.135142 46.90226 L 419.244233 45.110874 L 419.353324 46.371082 L 419.462415 46.266047 L 419.571506 43.355978 L 419.680597 47.392362 L 419.789688 44.396008 L 420.007869 45.813667 L 420.226051 46.572034 L 420.335142 49.032568 L 420.553324 41.008722 L 420.662415 43.522419 L 420.771506 42.563205 L 420.989688 47.216279 L 421.098778 44.305278 L 421.207869 45.153674 L 421.31696 52.02996 L 421.426051 43.514715 L 421.535142 43.524461 L 421.753324 47.137222 L 421.971506 43.829268 L 422.080597 48.320566 L 422.189688 46.255122 L 422.407869 52.121979 L 422.844233 43.416944 L 422.953324 46.610162 L 423.062415 45.376582 L 423.389688 49.952263 L 423.607869 48.283847 L 423.71696 51.060406 L 423.826051 50.686485 L 424.044233 47.939992 L 424.153324 47.084817 L 424.371506 43.998403 L 424.480597 46.717013 L 424.698778 42.35572 L 424.807869 44.218304 L 424.91696 43.897317 L 425.135142 47.14537 L 425.244233 46.339879 L 425.353324 46.514604 L 425.462415 48.358324 L 425.680597 43.983471 L 425.898778 46.971336 L 426.226051 42.515959 L 426.553324 44.507912 L 426.662415 43.445539 L 426.771506 43.966937 L 426.880597 46.336426 L 427.098778 42.935189 L 427.207869 45.471257 L 427.31696 43.050626 L 427.535142 45.641086 L 427.644233 45.27665 L 427.753324 45.455501 L 427.971506 48.01488 L 428.298778 50.043586 L 428.407869 49.64752 L 428.51696 51.207139 L 428.626051 50.507856 L 428.735142 50.794589 L 428.953324 45.924622 L 429.171506 42.485717 L 429.280597 42.844461 L 429.389688 44.097765 L 429.607869 42.424033 L 430.153324 46.360636 L 430.698778 51.93369 L 430.807869 51.879741 L 430.91696 53.417145 L 431.135142 51.913364 L 431.462415 48.76351 L 431.680597 47.682412 L 431.789688 49.196459 L 431.898778 47.327937 L 432.553324 58.003053 L 432.771506 62.987326 L 432.880597 63.428596 L 432.989688 68.664611 L 433.098778 68.205269 L 433.31696 70.999762 L 433.535142 68.316721 L 433.644233 68.667059 L 433.753324 71.144132 L 433.862415 64.108063 L 433.971506 64.17619 L 434.407869 56.788727 L 434.51696 58.910543 L 434.626051 58.516654 L 435.171506 47.767399 L 435.280597 47.83919 L 435.826051 42.060919 L 435.935142 42.490479 L 436.044233 42.183999 L 436.153324 43.414872 L 436.262415 46.353777 L 436.371506 45.161774 L 436.807869 47.31965 L 436.91696 47.634553 L 437.026051 48.579585 L 437.135142 46.955967 L 437.244233 47.16475 L 437.353324 46.092759 L 437.462415 47.025572 L 437.571506 45.872325 L 437.680597 47.177064 L 438.007869 41.738033 L 438.11696 41.868217 L 438.226051 42.171701 L 438.335142 41.792985 L 438.444233 42.55893 L 438.553324 42.399254 L 438.989688 46.911892 L 439.098778 46.852371 L 439.31696 48.300772 L 439.426051 47.007999 L 439.535142 48.931193 L 439.862415 45.093565 L 440.080597 43.553836 L 440.189688 45.026964 L 440.407869 44.781819 L 440.51696 45.254135 L 440.626051 46.492469 L 440.735142 45.484439 L 440.844233 45.661992 L 440.953324 46.43764 L 441.171506 44.749674 L 441.280597 44.550614 L 441.498778 45.365962 L 441.607869 44.705659 L 441.71696 46.224235 L 441.826051 45.147712 L 441.935142 45.399368 L 442.044233 45.302439 L 442.153324 44.888612 L 442.262415 44.920178 L 442.480597 44.271639 L 442.589688 43.817408 L 442.698778 41.923409 L 442.807869 41.943516 L 442.91696 41.114927 L 443.026051 41.58468 L 443.462415 47.359629 L 443.571506 46.800665 L 443.680597 47.176054 L 443.789688 44.530026 L 444.11696 47.816712 L 444.226051 46.578157 L 444.335142 46.819955 L 444.444233 46.384885 L 444.553324 45.405511 L 444.662415 45.876909 L 444.989688 50.23913 L 445.207869 48.983475 L 445.426051 47.59596 L 445.535142 47.89635 L 445.644233 45.095426 L 445.753324 45.525113 L 445.862415 44.564449 L 446.080597 45.170074 L 446.189688 44.548706 L 446.298778 43.284028 L 446.407869 43.351565 L 446.51696 45.972315 L 446.626051 45.138944 L 446.735142 43.164453 L 446.844233 43.24341 L 446.953324 43.174616 L 447.171506 44.771678 L 447.280597 43.943203 L 447.498778 45.505391 L 447.607869 46.051381 L 447.71696 45.849535 L 447.935142 50.916913 L 448.044233 47.027435 L 448.153324 50.136208 L 448.371506 46.244318 L 448.480597 46.178905 L 448.589688 44.559238 L 448.698778 45.657327 L 449.135142 44.449224 L 449.244233 44.19372 L 449.353324 43.498 L 449.462415 44.483777 L 449.680597 43.376398 L 449.789688 43.384471 L 449.898778 44.966962 L 450.007869 43.869648 L 450.335142 48.560236 L 450.444233 46.747201 L 450.662415 47.858694 L 450.880597 50.38951 L 450.989688 48.398348 L 451.098778 48.785317 L 451.207869 50.301139 L 451.426051 49.450657 L 451.535142 50.072049 L 451.753324 48.868469 L 451.862415 52.601861 L 451.971506 50.930919 L 452.080597 54.688572 L 452.189688 51.308072 L 452.298778 51.847981 L 452.51696 50.322554 L 453.171506 47.040247 L 453.280597 46.874641 L 453.389688 45.990026 L 453.607869 52.339617 L 453.826051 48.85313 L 453.935142 49.803238 L 454.044233 48.307662 L 454.153324 49.553562 L 454.262415 48.344453 L 454.371506 48.421881 L 454.480597 49.116138 L 454.589688 51.457212 L 454.698778 44.80112 L 454.91696 45.975574 L 455.026051 48.409724 L 455.135142 47.472365 L 455.353324 42.77312 L 455.462415 44.623479 L 455.680597 43.323748 L 455.898778 43.018711 L 456.007869 43.2037 L 456.11696 41.936856 L 456.226051 42.755841 L 456.335142 45.222352 L 456.444233 44.525568 L 456.553324 46.332627 L 456.880597 43.222278 L 456.989688 42.893683 L 457.098778 41.819414 L 457.31696 43.186985 L 457.426051 42.555936 L 457.535142 43.536508 L 457.862415 41.686063 L 458.080597 45.348824 L 458.298778 46.92777 L 458.407869 46.928357 L 458.51696 46.619203 L 458.735142 49.400616 L 458.953324 45.209653 L 459.062415 46.054635 L 459.280597 45.875725 L 459.389688 46.08756 L 459.607869 47.519917 L 459.935142 50.017277 L 460.044233 50.318934 L 460.153324 49.37928 L 460.262415 47.250443 L 460.371506 48.173765 L 460.698778 53.879703 L 460.807869 49.37628 L 461.026051 50.129655 L 461.135142 49.728159 L 461.244233 47.123343 L 461.571506 48.963341 L 461.680597 48.556751 L 461.789688 49.601422 L 461.898778 47.998732 L 462.007869 48.917606 L 462.11696 47.977725 L 462.226051 48.657688 L 462.444233 45.984793 L 462.880597 49.036562 L 463.098778 51.515163 L 463.31696 48.193432 L 463.535142 49.420983 L 463.753324 49.896457 L 463.862415 50.200072 L 464.189688 48.02659 L 464.298778 48.368902 L 464.407869 46.934342 L 464.51696 50.789595 L 464.626051 48.647865 L 464.844233 49.993463 L 464.953324 49.56742 L 465.062415 51.351681 L 465.171506 50.147277 L 465.389688 52.751308 L 465.498778 52.935562 L 465.607869 51.368926 L 465.71696 52.837066 L 465.935142 51.461066 L 466.044233 52.240403 L 466.153324 51.753621 L 466.262415 50.069737 L 466.480597 52.833048 L 466.698778 50.776234 L 467.026051 56.339852 L 467.135142 54.797517 L 467.462415 59.669713 L 467.571506 63.405069 L 467.680597 52.774128 L 467.789688 54.488888 L 468.11696 48.124566 L 468.553324 52.930658 L 468.771506 56.131165 L 468.880597 56.434371 L 469.207869 64.453111 L 469.31696 64.100486 L 470.080597 78.274936 L 470.189688 78.408857 L 470.298778 79.218608 L 470.407869 78.521568 L 470.626051 82.020112 L 470.735142 81.327798 L 470.844233 82.215087 L 470.953324 79.125952 L 471.062415 80.564421 L 471.280597 78.067844 L 471.71696 71.333533 L 471.935142 65.969119 L 472.153324 62.043185 L 472.262415 60.99301 L 472.480597 55.898315 L 472.589688 55.935641 L 472.91696 51.923505 L 473.026051 52.720979 L 473.244233 47.038711 L 473.353324 48.427196 L 473.898778 44.645088 L 474.007869 45.920762 L 474.11696 45.632143 L 474.335142 46.292359 L 474.553324 46.923204 L 474.662415 50.318165 L 474.989688 47.206849 L 475.098778 54.800187 L 475.207869 47.856215 L 475.31696 47.968792 L 475.426051 49.140299 L 475.644233 45.323063 L 475.753324 45.41756 L 475.862415 42.487795 L 476.080597 45.574494 L 476.189688 43.881855 L 476.298778 44.816519 L 476.407869 43.759215 L 476.51696 44.885337 L 476.626051 42.739725 L 476.735142 44.421086 L 476.844233 43.334109 L 476.953324 44.815415 L 477.062415 44.708787 L 477.171506 45.075054 L 477.280597 46.985669 L 477.498778 44.858154 L 477.71696 48.47723 L 477.826051 46.098701 L 477.935142 48.711129 L 478.044233 47.103226 L 478.153324 48.792481 L 478.262415 47.802488 L 478.371506 49.320283 L 478.589688 44.723562 L 478.698778 44.696802 L 478.91696 43.398113 L 479.026051 44.442482 L 479.135142 43.617813 L 479.462415 47.107548 L 479.571506 46.339041 L 479.680597 46.92024 L 479.789688 44.739534 L 480.007869 47.004367 L 480.11696 45.057123 L 480.226051 45.098093 L 480.335142 45.584754 L 480.444233 47.002789 L 480.662415 44.483562 L 480.771506 45.309994 L 480.880597 45.163068 L 480.989688 46.459699 L 481.098778 46.256009 L 481.207869 44.767456 L 481.535142 46.905269 L 481.753324 49.594774 L 481.862415 49.028867 L 481.971506 46.015676 L 482.080597 46.094065 L 482.298778 47.84857 L 482.407869 48.219452 L 482.626051 50.728646 L 482.735142 49.554394 L 482.844233 47.165032 L 482.953324 48.058001 L 483.280597 46.09841 L 483.389688 46.016328 L 483.498778 47.019629 L 483.607869 44.986441 L 483.71696 46.025122 L 483.935142 43.247292 L 484.153324 45.580413 L 484.262415 47.077322 L 484.371506 45.147737 L 484.698778 48.258387 L 484.807869 46.979948 L 484.91696 47.715782 L 485.026051 47.015179 L 485.135142 48.4451 L 485.244233 47.241478 L 485.462415 48.480445 L 485.571506 48.143101 L 485.680597 47.434433 L 485.789688 48.190909 L 486.007869 47.29706 L 486.226051 49.537566 L 486.335142 48.064968 L 486.662415 49.071225 L 486.880597 50.492829 L 486.989688 50.82346 L 487.098778 49.95 L 487.207869 50.237997 L 487.426051 52.937514 L 487.535142 53.291643 L 487.644233 53.13612 L 487.753324 54.425377 L 487.862415 57.394922 L 487.971506 55.505832 L 488.080597 56.62044 L 488.189688 55.656181 L 488.407869 57.966316 L 488.51696 57.289293 L 488.626051 57.599247 L 488.735142 59.311196 L 488.844233 58.195691 L 488.953324 55.77856 L 489.062415 57.92692 L 489.171506 56.135185 L 489.280597 56.698029 L 489.389688 55.864611 L 489.607869 57.210019 L 489.71696 55.873536 L 489.826051 56.131488 L 490.044233 55.373113 L 490.153324 55.697286 L 490.262415 55.548431 L 490.371506 53.023091 L 490.480597 53.074817 L 490.589688 53.423184 L 490.698778 52.380217 L 490.807869 53.300711 L 491.026051 50.376749 L 491.135142 51.705979 L 491.462415 49.472647 L 491.571506 50.462653 L 491.789688 49.149734 L 491.898778 49.143094 L 492.11696 48.10699 L 492.335142 49.459697 L 492.444233 48.178312 L 492.553324 50.234348 L 492.771506 48.712576 L 493.098778 53.615917 L 493.207869 51.572011 L 493.426051 53.359252 L 493.535142 52.605422 L 493.753324 53.805154 L 493.971506 53.816816 L 494.189688 56.004741 L 494.298778 55.312512 L 494.407869 56.068632 L 494.51696 55.471427 L 494.735142 55.662835 L 494.844233 56.385068 L 495.062415 55.870262 L 495.171506 54.329269 L 495.280597 56.186008 L 495.498778 52.052864 L 495.607869 52.129117 L 495.826051 50.561843 L 496.044233 47.564687 L 496.153324 47.839528 L 496.371506 46.374206 L 496.480597 46.642587 L 496.589688 47.371893 L 496.807869 45.077772 L 497.026051 44.742992 L 497.135142 45.553836 L 497.244233 45.388547 L 497.353324 44.874969 L 497.462415 44.916135 L 497.680597 47.557999 L 497.789688 46.334055 L 497.898778 46.440646 L 498.11696 47.928065 L 498.226051 48.371288 L 498.335142 47.977572 L 498.553324 49.784952 L 498.662415 49.112462 L 498.771506 51.133439 L 498.880597 50.416807 L 498.989688 50.802895 L 499.098778 52.138199 L 499.207869 51.689294 L 499.31696 52.650145 L 499.426051 51.938291 L 499.535142 52.402387 L 499.644233 54.872734 L 499.753324 54.223824 L 499.862415 54.824464 L 499.971506 52.671712 L 500.080597 55.238819 L 500.189688 55.126946 L 500.298778 55.41451 L 500.407869 52.715793 L 500.626051 53.544059 L 500.735142 51.862575 L 500.844233 52.573652 L 500.953324 51.699198 L 501.062415 49.837469 L 501.171506 50.074698 L 501.280597 49.138387 L 501.389688 52.176216 L 501.607869 49.380909 L 501.826051 51.65778 L 501.935142 50.644365 L 502.153324 52.738712 L 502.480597 54.359685 L 502.589688 56.48932 L 502.698778 56.010416 L 502.807869 59.360988 L 502.91696 56.567343 L 503.135142 60.771865 L 503.244233 60.698187 L 503.353324 61.060409 L 503.462415 63.263649 L 503.571506 61.868233 L 503.789688 64.967143 L 503.898778 66.140779 L 504.007869 63.092572 L 504.11696 64.227164 L 504.226051 67.115324 L 504.335142 65.057748 L 504.444233 67.065469 L 504.662415 66.880458 L 504.771506 68.009314 L 504.880597 67.230472 L 504.989688 65.461142 L 505.098778 67.647414 L 505.207869 67.39232 L 505.31696 68.63769 L 505.426051 67.647894 L 505.535142 64.680651 L 505.753324 67.203088 L 505.862415 66.414324 L 505.971506 66.604469 L 506.080597 67.50696 L 506.298778 65.76147 L 506.51696 65.309965 L 506.626051 66.898357 L 506.735142 64.632781 L 506.844233 68.089376 L 506.953324 64.270843 L 507.062415 66.145553 L 507.171506 66.137839 L 507.280597 65.386618 L 507.389688 65.975126 L 507.498778 64.779052 L 507.607869 66.994287 L 507.71696 63.611566 L 507.826051 65.037092 L 508.153324 61.674163 L 508.262415 63.460408 L 508.371506 60.943836 L 508.480597 61.895905 L 508.589688 61.772068 L 508.698778 61.346808 L 508.807869 62.175347 L 508.91696 61.307898 L 509.026051 62.033018 L 509.135142 60.285801 L 509.353324 61.251228 L 509.571506 60.325143 L 509.680597 60.481467 L 509.898778 59.155871 L 510.007869 59.844216 L 510.11696 58.913153 L 510.226051 59.486431 L 510.335142 58.780444 L 510.444233 58.891794 L 510.553324 56.582016 L 510.662415 59.124784 L 510.771506 58.208185 L 510.880597 59.087961 L 511.207869 56.557409 L 511.31696 55.830426 L 511.426051 54.092145 L 511.535142 54.390007 L 511.644233 53.315054 L 511.753324 54.353691 L 511.862415 52.788502 L 511.971506 53.379052 L 512.189688 50.753262 L 512.298778 50.458666 L 512.51696 49.304534 L 512.626051 48.787762 L 512.735142 49.151351 L 512.844233 47.431928 L 512.953324 47.828639 L 513.062415 46.333593 L 513.171506 47.746043 L 513.280597 47.112758 L 513.389688 48.958139 L 513.498778 46.406337 L 513.607869 47.50278 L 513.71696 46.00739 L 513.826051 47.214056 L 513.935142 44.225537 L 514.044233 45.893623 L 514.153324 43.658635 L 514.371506 46.07706 L 514.480597 44.315256 L 514.589688 44.627466 L 515.026051 47.254661 L 515.135142 45.617248 L 515.244233 49.079889 L 515.462415 48.715039 L 515.789688 50.224347 L 515.898778 51.299208 L 516.007869 51.19315 L 516.11696 49.846732 L 516.335142 50.288803 L 516.553324 48.266742 L 516.880597 50.859972 L 517.207869 48.051739 L 517.31696 49.169314 L 517.535142 48.25466 L 517.644233 48.512948 L 517.753324 47.744845 L 517.862415 48.304807 L 517.971506 47.45976 L 518.080597 48.429022 L 518.189688 50.419299 L 518.298778 48.490187 L 518.407869 49.874596 L 518.51696 49.637989 L 518.626051 50.189747 L 518.844233 52.065762 L 518.953324 52.28648 L 519.062415 54.560004 L 519.171506 53.355018 L 519.280597 54.269616 L 519.498778 52.70847 L 519.607869 54.93014 L 519.71696 52.459556 L 519.826051 53.379242 L 520.262415 49.791904 L 520.480597 50.849336 L 520.91696 48.100473 L 521.026051 48.095067 L 521.135142 46.537695 L 521.244233 46.913479 L 521.353324 45.538652 L 521.571506 45.914137 L 521.680597 45.129062 L 521.898778 46.441449 L 522.007869 45.614513 L 522.11696 46.851201 L 522.335142 45.822161 L 522.444233 47.270624 L 522.553324 46.272395 L 522.771506 47.905975 L 522.880597 47.106967 L 522.989688 49.157424 L 523.098778 47.237703 L 523.207869 48.478103 L 523.31696 47.042287 L 523.535142 48.702106 L 523.644233 48.394742 L 523.753324 48.930188 L 523.862415 50.139101 L 524.080597 49.27143 L 524.189688 49.913969 L 524.298778 49.453644 L 524.51696 49.796167 L 524.626051 47.987652 L 524.735142 49.43763 L 524.844233 49.330554 L 524.953324 50.071472 L 525.062415 49.746585 L 525.171506 51.446165 L 525.280597 49.69091 L 525.389688 49.733688 L 525.71696 51.935697 L 525.826051 50.801488 L 525.935142 50.862864 L 526.153324 51.778477 L 526.262415 51.166779 L 526.480597 52.509889 L 526.698778 50.919657 L 526.91696 50.919449 L 527.026051 52.03645 L 527.135142 51.061866 L 527.353324 51.550666 L 527.462415 51.12033 L 527.571506 52.424938 L 527.680597 51.790337 L 527.898778 52.50065 L 528.007869 51.851736 L 528.11696 52.836819 L 528.335142 51.894033 L 528.553324 52.882637 L 528.771506 49.870444 L 528.880597 51.115947 L 529.098778 48.049715 L 529.207869 48.514314 L 529.31696 48.042284 L 529.535142 46.244387 L 529.644233 46.631646 L 529.862415 46.277112 L 529.971506 46.189902 L 530.080597 46.966678 L 530.189688 45.985872 L 530.51696 47.271545 L 530.626051 46.360206 L 530.735142 46.795191 L 530.953324 48.357078 L 531.062415 47.911112 L 531.171506 48.588569 L 531.389688 47.455244 L 531.498778 47.68533 L 531.607869 48.962504 L 531.71696 48.54208 L 531.935142 50.727717 L 532.044233 50.696611 L 532.153324 50.545 L 532.262415 49.561199 L 532.371506 49.861513 L 532.480597 51.781243 L 532.589688 51.280952 L 532.807869 49.495537 L 532.91696 50.424889 L 533.026051 49.917272 L 533.135142 51.685496 L 533.244233 51.016137 L 533.462415 53.639306 L 533.571506 54.015369 L 533.680597 50.915329 L 533.898778 54.285036 L 534.007869 53.688515 L 534.226051 54.184691 L 534.335142 54.1735 L 534.444233 53.127327 L 534.662415 54.347447 L 534.771506 53.943777 L 534.880597 54.299512 L 534.989688 53.317063 L 535.207869 56.480245 L 535.31696 54.552829 L 535.426051 54.926061 L 535.535142 54.14207 L 535.644233 54.433762 L 535.753324 55.625618 L 535.971506 53.805026 L 536.080597 54.792184 L 536.189688 54.592973 L 536.298778 55.418832 L 536.407869 53.627808 L 536.51696 54.234452 L 536.626051 53.297355 L 536.735142 53.808434 L 536.844233 53.755937 L 537.062415 52.383983 L 537.280597 53.919071 L 537.389688 53.369068 L 537.498778 53.432244 L 537.607869 53.184717 L 537.71696 53.981078 L 537.826051 56.394177 L 538.044233 55.137434 L 538.153324 54.826057 L 538.262415 55.442021 L 538.371506 54.971711 L 538.480597 53.72009 L 538.698778 55.946497 L 538.91696 54.406802 L 539.135142 54.307277 L 539.353324 54.907477 L 539.462415 55.030353 L 539.571506 56.933253 L 539.789688 54.394347 L 539.898778 56.72143 L 540.007869 56.449225 L 540.11696 57.160582 L 540.335142 54.379792 L 540.553324 56.729271 L 540.662415 53.590496 L 540.880597 54.446228 L 540.989688 56.054634 L 541.207869 53.318328 L 541.31696 53.794923 L 541.426051 55.31371 L 541.535142 53.650466 L 541.644233 54.448715 L 541.753324 53.233747 L 541.971506 55.875323 L 542.407869 52.610374 L 542.844233 57.061703 L 543.062415 55.203343 L 543.171506 56.440225 L 543.389688 53.824607 L 543.71696 51.550159 L 543.826051 52.596901 L 544.044233 49.722894 L 544.153324 50.620843 L 544.480597 47.348162 L 544.589688 48.03462 L 544.698778 47.642302 L 544.807869 48.183832 L 544.91696 50.400067 L 545.026051 50.300475 L 545.135142 46.426356 L 545.244233 46.527052 L 545.353324 46.325667 L 545.462415 46.372069 L 545.571506 46.13633 L 545.680597 47.366053 L 545.789688 47.165422 L 545.898778 47.844097 L 546.007869 46.356509 L 546.11696 47.581495 L 546.226051 46.404395 L 546.553324 47.305597 L 546.662415 46.663255 L 546.771506 47.396409 L 547.098778 46.723216 L 547.207869 46.169509 L 547.31696 46.33667 L 547.426051 45.481785 L 547.535142 47.092609 L 547.644233 46.962149 L 547.862415 44.854727 L 547.971506 44.85406 L 548.080597 45.302677 L 548.189688 45.278311 L 548.407869 45.440139 L 548.51696 44.126995 L 548.626051 44.203131 L 548.735142 44.018962 L 548.953324 43.294756 L 549.062415 43.477993 L 549.171506 44.023091 L 549.280597 43.335031 L 549.389688 43.979872 L 549.498778 42.609858 L 549.71696 43.979102 L 550.044233 45.618462 L 550.371506 47.570204 L 550.480597 48.717444 L 550.589688 47.810281 L 550.698778 48.753307 L 550.807869 47.680372 L 550.91696 47.831783 L 551.026051 51.270556 L 551.135142 51.217246 L 551.244233 52.088858 L 551.353324 49.863082 L 551.462415 49.999168 L 551.680597 53.215008 L 551.789688 52.503104 L 551.898778 55.825522 L 552.11696 54.305372 L 552.335142 53.99629 L 552.553324 51.956885 L 552.662415 51.574605 L 552.771506 53.374171 L 552.880597 51.734216 L 553.098778 53.522849 L 553.31696 52.117207 L 553.426051 53.745223 L 553.535142 52.57118 L 553.644233 54.706947 L 553.753324 52.957273 L 553.971506 55.866414 L 554.189688 55.023101 L 554.298778 57.221167 L 554.407869 56.455135 L 554.626051 59.776515 L 554.735142 60.790606 L 554.844233 57.285263 L 554.953324 57.646474 L 555.062415 59.101939 L 555.171506 58.782058 L 555.280597 60.048349 L 555.389688 59.365698 L 555.498778 59.948124 L 555.607869 59.746119 L 555.71696 58.978087 L 555.935142 59.440345 L 556.153324 59.099084 L 556.262415 60.744806 L 556.371506 59.084588 L 556.480597 59.608551 L 556.589688 58.412298 L 556.698778 58.603033 L 556.807869 59.728449 L 557.026051 58.625314 L 557.244233 61.219911 L 557.462415 58.326562 L 557.571506 59.607062 L 557.789688 58.216363 L 557.898778 61.584493 L 558.007869 60.762772 L 558.226051 57.81361 L 558.335142 59.618932 L 558.444233 57.930706 L 558.553324 60.498103 L 558.662415 60.414611 L 558.880597 59.866782 L 558.989688 60.451843 L 559.098778 58.405507 L 559.207869 59.660622 L 559.31696 59.316323 L 559.426051 56.845977 L 559.535142 59.95942 L 559.644233 57.973108 L 559.753324 59.560732 L 559.862415 58.198593 L 560.189688 59.751178 L 560.407869 55.987974 L 560.626051 58.947581 L 560.844233 57.505292 L 561.062415 56.780231 L 561.171506 57.936134 L 561.280597 57.69958 L 561.389688 56.846169 L 561.607869 59.388485 L 561.71696 58.65416 L 561.826051 60.221602 L 562.153324 57.683998 L 562.371506 59.239591 L 562.480597 58.953649 L 562.589688 58.089746 L 562.698778 58.796895 L 562.807869 58.558444 L 562.91696 59.686863 L 563.026051 58.81245 L 563.135142 60.346446 L 563.244233 59.50083 L 563.353324 60.728878 L 563.462415 60.384104 L 563.789688 64.581741 L 563.898778 64.507548 L 564.553324 70.946803 L 564.880597 73.068325 L 565.31696 85.122109 L 565.426051 82.442877 L 565.535142 87.948934 L 565.644233 84.435034 L 565.862415 89.212534 L 565.971506 88.63169 L 566.189688 98.129569 L 566.298778 96.396305 L 566.407869 97.461045 L 566.844233 105.324455 L 566.953324 104.25952 L 567.171506 108.174157 L 567.280597 108.648433 L 567.498778 115.46356 L 568.044233 122.64243 L 568.153324 126.060565 L 568.262415 124.928867 L 568.371506 126.629893 L 568.589688 132.730123 L 568.91696 134.973198 L 569.135142 137.047581 L 569.353324 139.081037 L 569.462415 138.775562 L 569.789688 140.384815 L 570.007869 143.415781 L 570.226051 144.955569 L 570.335142 142.643539 L 570.444233 145.592129 L 570.553324 145.016937 L 570.771506 147.729286 L 570.880597 146.815272 L 570.989688 147.678411 L 571.207869 147.07251 L 571.426051 148.104441 L 571.535142 150.349905 L 571.753324 149.555551 L 571.971506 151.616536 L 572.189688 150.729658 L 572.298778 151.776664 L 572.407869 151.315036 L 572.51696 151.852952 L 572.626051 151.382621 L 572.735142 152.942664 L 572.953324 152.10711 L 573.389688 153.31697 L 573.498778 152.469367 L 573.607869 152.685746 L 573.935142 152.492564 L 574.153324 153.407003 L 574.262415 153.297905 L 574.371506 153.422615 L 574.480597 154.164181 L 574.589688 153.933575 L 574.698778 154.67664 L 574.807869 154.10418 L 574.91696 154.240499 L 575.026051 153.867044 L 575.353324 154.752935 L 575.462415 154.730215 L 575.680597 155.428476 L 575.789688 155.377506 L 575.898778 156.714053 L 576.007869 155.093288 L 576.11696 156.04224 L 576.226051 155.589461 L 576.335142 156.521551 L 576.444233 156.382985 L 576.662415 157.997698 L 576.771506 155.552491 L 576.880597 158.803031 L 576.989688 157.761013 L 577.207869 158.123564 L 577.31696 157.70595 L 577.426051 158.208722 L 577.535142 158.18028 L 577.753324 157.62667 L 577.971506 158.266029 L 578.189688 158.080306 L 578.298778 158.547374 L 578.51696 157.988258 L 578.626051 158.056879 L 578.735142 157.247936 L 578.844233 157.859364 L 579.062415 155.557527 L 579.171506 158.826903 L 579.389688 154.633679 L 579.498778 153.054719 L 579.71696 153.208195 L 579.826051 153.76401 L 579.935142 149.398474 L 580.044233 153.081016 L 580.262415 149.398474 L 580.371506 149.398474 L 580.480597 148.333697 L 580.589688 149.398474 L 580.698778 148.807585 L 580.807869 142.326089 L 581.026051 143.185866 L 581.244233 142.92032 L 581.462415 133.561533 L 581.571506 134.710547 L 581.789688 133.518687 L 582.007869 126.103544 L 582.11696 128.544369 L 582.226051 122.335318 L 582.335142 122.436209 L 582.553324 121.816513 L 582.662415 121.908629 L 582.771506 119.808279 L 582.880597 119.937628 L 582.989688 119.749754 L 583.207869 111.597597 L 583.31696 115.957686 L 583.426051 115.394209 L 583.644233 110.549823 L 583.753324 110.196927 L 583.862415 107.977269 L 583.971506 102.845686 L 584.080597 104.192234 L 584.298778 102.923356 L 584.51696 101.396305 L 584.626051 101.421819 L 584.735142 98.267611 L 584.844233 99.134049 L 585.062415 95.904195 L 585.171506 95.88394 L 585.389688 92.294912 L 585.498778 92.371624 L 585.71696 89.330073 L 585.826051 86.983936 L 585.935142 88.244088 L 586.044233 88.231927 L 586.153324 86.038487 L 586.262415 87.400982 L 586.480597 83.675909 L 586.698778 82.234763 L 586.91696 78.27025 L 587.026051 76.050787 L 587.135142 77.082212 L 587.244233 74.907358 L 587.353324 74.995444 L 587.571506 72.805461 L 587.680597 68.480176 L 587.789688 71.388031 L 587.898778 68.480176 L 588.007869 71.832622 L 588.11696 70.338237 L 588.335142 65.401725 L 588.444233 64.321945 L 588.553324 64.664017 L 588.771506 60.366503 L 588.880597 62.422171 L 588.989688 61.894816 L 589.535142 55.012461 L 589.644233 55.092991 L 589.862415 56.977707 L 590.080597 52.401003 L 590.189688 54.157705 L 590.298778 54.049937 L 590.51696 51.410414 L 590.626051 51.699817 L 590.735142 50.243505 L 590.844233 51.623313 L 591.062415 50.229866 L 591.171506 51.011926 L 591.389688 48.803523 L 591.498778 49.090407 L 591.71696 50.609603 L 591.826051 50.475499 L 591.935142 50.614366 L 592.153324 49.205471 L 592.262415 49.107152 L 592.371506 50.202943 L 592.480597 49.785272 L 592.589688 47.98793 L 592.698778 48.600041 L 592.807869 48.450654 L 592.91696 47.97402 L 593.026051 48.996017 L 593.135142 48.631518 L 593.244233 49.082369 L 593.462415 47.489689 L 593.680597 48.984798 L 593.789688 47.772702 L 593.898778 48.667754 L 594.11696 45.399428 L 594.226051 52.011648 L 594.335142 46.494074 L 594.444233 47.056805 L 594.553324 48.217348 L 594.662415 47.642099 L 594.880597 44.548232 L 595.098778 45.610452 L 595.207869 43.8829 L 595.426051 44.673488 L 595.535142 44.044066 L 595.644233 44.954157 L 595.753324 44.647238 L 595.862415 44.797184 L 596.080597 42.528122 L 596.189688 45.494469 L 596.407869 42.549088 L 596.51696 44.508035 L 596.735142 43.530852 L 596.844233 44.511839 L 596.953324 42.879709 L 597.062415 43.597097 L 597.171506 43.042217 L 597.280597 46.427429 L 597.498778 44.751896 L 597.826051 46.575396 L 598.044233 45.050954 L 598.153324 44.784068 L 598.262415 46.46483 L 598.371506 45.800397 L 598.480597 46.463939 L 598.589688 45.277936 L 598.698778 46.8236 L 598.91696 44.570064 L 599.026051 46.066282 L 599.244233 44.311367 L 599.353324 46.911608 L 599.462415 45.753616 L 599.571506 46.303791 L 599.680597 43.694245 L 599.789688 45.674413 L 599.898778 44.838101 L 600.007869 45.858551 L 600.11696 44.251599 L 600.226051 44.444594 L 600.335142 45.595119 L 600.444233 45.039857 L 600.662415 45.697604 L 600.771506 45.014981 L 600.880597 46.420823 L 600.989688 44.998598 L 601.098778 48.854198 L 601.207869 46.822922 L 601.31696 49.132897 L 601.426051 47.21774 L 601.535142 49.638573 L 601.644233 49.010082 L 601.753324 47.429549 L 601.862415 47.698514 L 602.080597 46.698324 L 602.189688 48.235997 L 602.298778 47.71713 L 602.407869 48.383386 L 602.51696 47.264538 L 602.735142 49.070224 L 602.844233 47.161632 L 602.953324 51.050976 L 603.389688 47.085273 L 603.498778 48.166369 L 603.607869 47.016998 L 603.71696 49.243046 L 603.935142 46.95463 L 604.044233 48.2028 L 604.153324 47.973245 L 604.480597 46.329924 L 604.698778 46.074948 L 604.807869 46.298595 L 604.91696 47.158636 L 605.026051 46.2511 L 605.135142 46.697133 L 605.244233 45.33241 L 605.353324 47.075983 L 605.571506 46.001728 L 605.680597 46.526733 L 605.789688 46.395503 L 605.898778 45.782979 L 606.007869 47.137686 L 606.11696 47.051978 L 606.226051 45.770028 L 606.335142 47.197392 L 606.662415 46.043434 L 606.771506 47.594888 L 606.880597 46.653783 L 606.989688 47.848455 L 607.098778 46.856058 L 607.207869 47.691 L 607.31696 49.62056 L 607.426051 48.176035 L 607.753324 50.43162 L 607.971506 49.96881 L 608.080597 53.389135 L 608.189688 50.472658 L 608.298778 52.989613 L 608.407869 52.413654 L 608.51696 52.766954 L 608.626051 51.718308 L 608.844233 53.333611 L 608.953324 52.67163 L 609.062415 54.083962 L 609.171506 53.523337 L 609.280597 52.017917 L 609.389688 55.008764 L 609.498778 53.799112 L 609.71696 55.612269 L 609.935142 53.373242 L 610.153324 56.896245 L 610.262415 56.432374 L 610.371506 55.820381 L 610.480597 57.943597 L 610.589688 54.457278 L 610.698778 54.572217 L 610.807869 53.95393 L 610.91696 58.50665 L 611.026051 54.905679 L 611.135142 55.099341 L 611.244233 56.933182 L 611.353324 55.924202 L 611.571506 60.59531 L 611.680597 55.512577 L 611.789688 61.245107 L 611.898778 57.570394 L 612.11696 58.828559 L 612.226051 59.268153 L 612.444233 61.124723 L 612.553324 58.256114 L 612.771506 61.734798 L 612.880597 59.688124 L 612.989688 62.292311 L 613.098778 61.352755 L 613.31696 61.681458 L 613.426051 62.61456 L 613.535142 61.558299 L 613.753324 63.592273 L 613.862415 62.168869 L 613.971506 62.542559 L 614.080597 65.338999 L 614.189688 62.373526 L 614.298778 65.599848 L 614.407869 64.60803 L 614.51696 65.978985 L 614.626051 64.559033 L 614.735142 66.76796 L 614.844233 65.503132 L 614.953324 66.692431 L 615.062415 63.751484 L 615.280597 68.119612 L 615.389688 66.97639 L 615.498778 64.123881 L 615.607869 65.967127 L 615.826051 64.781826 L 615.935142 67.915086 L 616.044233 66.990448 L 616.153324 67.206548 L 616.480597 63.992812 L 616.589688 65.452947 L 616.698778 65.319822 L 616.91696 63.936141 L 617.026051 63.571803 L 617.244233 65.728431 L 617.571506 63.338382 L 617.789688 65.294017 L 617.898778 64.672187 L 618.007869 65.57322 L 618.11696 61.503217 L 618.226051 62.771323 L 618.335142 62.604958 L 618.444233 62.141243 L 618.553324 60.971858 L 618.662415 61.154041 L 618.771506 60.859942 L 618.880597 61.116124 L 619.207869 59.823683 L 619.31696 58.015107 L 619.426051 60.906577 L 619.644233 59.760527 L 619.753324 60.059982 L 619.862415 56.491352 L 620.080597 58.298481 L 620.189688 55.057029 L 620.298778 57.595436 L 620.51696 54.701465 L 620.626051 55.741293 L 620.735142 55.721314 L 620.844233 55.705916 L 620.953324 54.346194 L 621.062415 55.000124 L 621.171506 54.591881 L 621.280597 53.552225 L 621.389688 54.615095 L 621.498778 53.464977 L 621.71696 54.628548 L 621.935142 54.180544 L 622.044233 55.563084 L 622.153324 53.982705 L 622.371506 55.972946 L 622.589688 57.106906 L 622.698778 54.539922 L 622.807869 57.832987 L 623.026051 55.720231 L 623.135142 58.740456 L 623.244233 56.696271 L 623.353324 59.722613 L 623.571506 57.191604 L 623.789688 58.408917 L 623.898778 57.928887 L 624.11696 60.899098 L 624.226051 61.359333 L 624.335142 61.059386 L 624.444233 58.670476 L 624.553324 61.902045 L 624.771506 60.111087 L 624.880597 60.861572 L 624.989688 59.500583 L 625.207869 63.817944 L 625.31696 60.798756 L 625.426051 62.417558 L 625.535142 60.95816 L 625.644233 63.650559 L 625.753324 61.264454 L 625.862415 62.418615 L 625.971506 60.905595 L 626.080597 66.031863 L 626.298778 61.263273 L 626.407869 64.163835 L 626.51696 64.063296 L 626.626051 64.631227 L 626.735142 60.014748 L 626.844233 62.698769 L 626.953324 57.891204 L 627.062415 61.777897 L 627.171506 59.111365 L 627.280597 64.008108 L 627.389688 59.634767 L 627.498778 61.276011 L 627.607869 60.689817 L 627.71696 58.180179 L 627.826051 63.749564 L 628.044233 59.247133 L 628.153324 60.435213 L 628.262415 64.217086 L 628.371506 59.90384 L 628.589688 60.875682 L 628.698778 60.474647 L 628.807869 56.69232 L 629.026051 61.007144 L 629.135142 60.811339 L 629.244233 58.247448 L 629.353324 60.106501 L 629.462415 57.334871 L 629.680597 58.570399 L 629.789688 57.632726 L 629.898778 59.407153 L 630.007869 55.86107 L 630.335142 57.606524 L 630.444233 58.865497 L 630.553324 58.584988 L 630.771506 54.411259 L 630.880597 56.616505 L 630.989688 53.57363 L 631.31696 55.127082 L 631.426051 52.678744 L 631.535142 53.444889 L 631.644233 52.334968 L 631.862415 54.523008 L 632.080597 52.901995 L 632.189688 53.96733 L 632.298778 53.848976 L 632.407869 53.912585 L 632.51696 51.758079 L 632.626051 52.069106 L 632.735142 53.882488 L 632.844233 51.872473 L 633.062415 52.307764 L 633.171506 51.757514 L 633.280597 52.472327 L 633.389688 50.179267 L 633.498778 53.258923 L 633.607869 51.854111 L 633.71696 52.045743 L 633.826051 51.940761 L 633.935142 50.99363 L 634.044233 51.067298 L 634.262415 51.786753 L 634.371506 51.943174 L 634.480597 50.196131 L 634.589688 51.649103 L 634.698778 51.527507 L 634.807869 49.83575 L 634.91696 50.739388 L 635.026051 49.009843 L 635.244233 51.486748 L 635.571506 50.837322 L 635.680597 50.798602 L 635.789688 50.369437 L 635.898778 49.129837 L 636.007869 52.616494 L 636.11696 48.318552 L 636.226051 51.863013 L 636.335142 51.838246 L 636.444233 48.692512 L 636.553324 52.480574 L 636.662415 49.2252 L 636.771506 49.87513 L 636.880597 48.173256 L 636.989688 48.377651 L 637.098778 54.058637 L 637.207869 48.030483 L 637.426051 50.860753 L 637.535142 50.983948 L 637.644233 49.87516 L 637.862415 51.017787 L 637.971506 51.172028 L 638.080597 50.069054 L 638.189688 50.876673 L 638.298778 49.53424 L 638.407869 51.839459 L 638.51696 51.046699 L 638.735142 47.562502 L 638.953324 51.063141 L 639.062415 51.454339 L 639.171506 50.677749 L 639.280597 47.352528 L 639.389688 50.206395 L 639.498778 49.625374 L 639.71696 50.095412 L 639.826051 47.055912 L 639.935142 49.754423 L 640.044233 49.675088 L 640.153324 46.86481 L 640.371506 49.551111 L 640.480597 46.836239 L 640.589688 49.971043 L 640.807869 49.37308 L 640.91696 47.46644 L 641.026051 48.948343 L 641.135142 48.194047 L 641.244233 50.088631 L 641.462415 48.619653 L 641.789688 50.10461 L 641.898778 51.41165 L 642.11696 49.561223 L 642.226051 50.722094 L 642.444233 49.701328 L 642.662415 51.881041 L 642.880597 50.684061 L 642.989688 53.091827 L 643.098778 52.868088 L 643.207869 52.954206 L 643.31696 55.186917 L 643.426051 53.267656 L 643.535142 53.668069 L 643.753324 52.837107 L 643.862415 56.089827 L 643.971506 53.674116 L 644.080597 55.690932 L 644.189688 55.260855 L 644.407869 57.899999 L 644.51696 56.679174 L 644.626051 57.625987 L 644.735142 60.109871 L 644.844233 59.848903 L 644.953324 56.730109 L 645.280597 63.163546 L 645.498778 61.579765 L 645.607869 62.599642 L 645.826051 58.742633 L 645.935142 62.573822 L 646.153324 60.483683 L 646.262415 62.600751 L 646.371506 60.701562 L 646.698778 62.734264 L 646.807869 60.605766 L 646.91696 62.054746 L 647.026051 61.983143 L 647.135142 58.43648 L 647.244233 59.470557 L 647.353324 62.73068 L 647.462415 62.473952 L 647.571506 61.326191 L 647.789688 58.20982 L 647.898778 58.711844 L 648.226051 63.902544 L 648.335142 60.244283 L 648.553324 62.53537 L 648.662415 60.0155 L 648.771506 61.381105 L 648.989688 59.424029 L 649.207869 62.161642 L 649.31696 60.359486 L 649.426051 64.987619 L 649.644233 60.864223 L 649.862415 64.844923 L 649.971506 62.326677 L 650.080597 62.71255 L 650.189688 64.348661 L 650.51696 62.78261 L 650.626051 65.634374 L 650.735142 63.520569 L 650.844233 65.61326 L 650.953324 62.703713 L 651.062415 66.580857 L 651.280597 64.246094 L 651.389688 63.758887 L 651.498778 67.411017 L 651.71696 64.963151 L 651.935142 68.392004 L 652.153324 64.931188 L 652.262415 64.510853 L 652.371506 68.713703 L 652.480597 64.014404 L 652.589688 68.717808 L 652.698778 68.345243 L 652.807869 68.73042 L 652.91696 68.130159 L 653.026051 68.349006 L 653.135142 69.27164 L 653.244233 67.260207 L 653.462415 67.61355 L 653.571506 66.378278 L 653.680597 68.623831 L 653.789688 66.33978 L 653.898778 68.773039 L 654.007869 68.252554 L 654.11696 67.013029 L 654.335142 70.174375 L 654.553324 65.801064 L 654.771506 68.814601 L 654.989688 66.988602 L 655.098778 68.177434 L 655.207869 67.480668 L 655.535142 68.448009 L 655.644233 69.415685 L 655.862415 67.670534 L 655.971506 68.736751 L 656.080597 68.232447 L 656.189688 69.409274 L 656.298778 67.536136 L 656.51696 68.647639 L 656.735142 66.75556 L 656.953324 68.282218 L 657.062415 68.305587 L 657.280597 69.285882 L 657.389688 68.428372 L 657.498778 69.381683 L 657.71696 68.682085 L 657.826051 68.523144 L 658.044233 69.598713 L 658.153324 68.965363 L 658.262415 69.746194 L 658.371506 67.648971 L 658.480597 70.425813 L 658.698778 68.056085 L 658.807869 68.434337 L 658.91696 67.721047 L 659.026051 70.49479 L 659.244233 66.864402 L 659.571506 68.680715 L 659.680597 68.333126 L 659.789688 66.911847 L 659.898778 68.29211 L 660.11696 65.924216 L 660.226051 66.131389 L 660.335142 67.047302 L 660.444233 66.865607 L 660.662415 65.415943 L 660.771506 66.598157 L 660.989688 65.472372 L 661.207869 65.362396 L 661.31696 65.309614 L 661.426051 64.530097 L 661.535142 64.551386 L 661.644233 65.030768 L 661.753324 64.190775 L 661.862415 62.461762 L 662.080597 63.998781 L 662.298778 64.373388 L 662.407869 62.853062 L 662.51696 59.480468 L 662.626051 62.500239 L 662.735142 61.828277 L 662.953324 59.004456 L 663.062415 60.087656 L 663.171506 59.554057 L 663.389688 61.042304 L 663.498778 59.88705 L 663.607869 56.960161 L 663.71696 57.392051 L 663.826051 58.428464 L 664.044233 57.047864 L 664.262415 59.307589 L 664.371506 57.856358 L 664.480597 58.505349 L 664.589688 57.890843 L 664.698778 55.502652 L 664.807869 57.476739 L 665.135142 54.477115 L 665.244233 54.553328 L 665.353324 55.263534 L 665.571506 53.038675 L 665.789688 54.49364 L 666.007869 54.233918 L 666.11696 52.748807 L 666.226051 54.004405 L 666.335142 52.990268 L 666.553324 54.112775 L 666.771506 54.098546 L 666.880597 53.693816 L 666.989688 52.744247 L 667.207869 53.226796 L 667.31696 53.651426 L 667.426051 52.789451 L 667.535142 54.293455 L 667.644233 53.562823 L 667.753324 53.819275 L 667.971506 53.381297 L 668.407869 56.457259 L 668.626051 54.022758 L 669.062415 57.88707 L 669.171506 57.155795 L 669.280597 58.004167 L 669.498778 57.146971 L 669.607869 58.480168 L 669.71696 56.554261 L 669.935142 59.847256 L 670.044233 58.118231 L 670.153324 60.232744 L 670.262415 58.794632 L 670.480597 60.386753 L 670.589688 58.931649 L 670.807869 59.822286 L 670.91696 61.464145 L 671.135142 60.139544 L 671.353324 61.738282 L 671.462415 61.421393 L 671.571506 62.914796 L 671.680597 60.145826 L 671.898778 61.501401 L 672.226051 60.182903 L 672.335142 61.804065 L 672.662415 58.826635 L 672.989688 60.236727 L 673.098778 60.039396 L 673.207869 61.244847 L 673.31696 60.337695 L 673.426051 61.780256 L 673.535142 59.48737 L 673.644233 60.241805 L 673.753324 59.119923 L 673.862415 59.840598 L 674.080597 57.819123 L 674.189688 58.984784 L 674.298778 58.883731 L 674.407869 57.079772 L 674.51696 57.968626 L 674.626051 57.727904 L 674.735142 57.988603 L 674.844233 56.787214 L 674.953324 58.100183 L 675.171506 56.980908 L 675.280597 56.893211 L 675.389688 57.508004 L 675.498778 55.328699 L 675.607869 57.757994 L 675.826051 55.030626 L 676.044233 57.479366 L 676.153324 55.605121 L 676.371506 56.035272 L 676.480597 57.418215 L 676.589688 55.027911 L 676.698778 55.625268 L 676.807869 54.148056 L 677.026051 55.009724 L 677.135142 53.589446 L 677.571506 54.831622 L 678.007869 53.212668 L 678.11696 54.475482 L 678.226051 53.430145 L 678.335142 53.651554 L 678.444233 52.617504 L 678.553324 53.412491 L 678.662415 53.31968 L 678.771506 54.604932 L 678.989688 51.840403 L 679.098778 51.768716 L 679.207869 52.297393 L 679.31696 50.620688 L 679.426051 50.885935 L 679.535142 51.723589 L 679.644233 51.204818 L 679.971506 52.209462 L 680.189688 50.768667 L 680.298778 52.98689 L 680.407869 51.558386 L 680.51696 51.615798 L 680.626051 50.817612 L 680.953324 52.919076 L 681.062415 51.357786 L 681.171506 52.469561 L 681.280597 52.156315 L 681.389688 52.945633 L 681.498778 54.803871 L 681.607869 54.663978 L 681.826051 55.322268 L 681.935142 53.527155 L 682.044233 53.74772 L 682.153324 55.963904 L 682.262415 55.881254 L 682.371506 57.141558 L 682.480597 55.553216 L 682.589688 56.792834 L 682.698778 56.574396 L 682.91696 60.323979 L 683.135142 57.08033 L 683.244233 62.764492 L 683.353324 61.943415 L 683.462415 63.022203 L 683.571506 61.972264 L 683.680597 57.524598 L 684.007869 64.208882 L 684.226051 62.475194 L 684.553324 66.078477 L 684.662415 63.993392 L 684.880597 68.176327 L 684.989688 67.721366 L 685.098778 69.714132 L 685.207869 68.379253 L 685.31696 69.997325 L 685.426051 67.647489 L 685.535142 69.774079 L 685.644233 67.643464 L 685.862415 71.812346 L 686.080597 72.59957 L 686.298778 72.029903 L 686.407869 74.635713 L 686.844233 70.689026 L 686.953324 70.816735 L 687.171506 75.922402 L 687.280597 73.63308 L 687.389688 74.153251 L 687.498778 73.951231 L 687.71696 77.866807 L 687.826051 76.539681 L 687.935142 78.26759 L 688.044233 76.919031 L 688.153324 73.651077 L 688.262415 78.603279 L 688.371506 72.905617 L 688.698778 78.032342 L 688.91696 73.290868 L 689.135142 75.146798 L 689.353324 73.932512 L 689.462415 75.146798 L 689.462415 75.146798 " style="fill:none;stroke:#000000;stroke-linecap:square;stroke-width:1.5;"></path> </g> <g id="patch_8"> <path d="M 380.189687 164.717812 L 380.189687 35.117812 " style="fill:none;stroke:#000000;stroke-linecap:square;stroke-linejoin:miter;stroke-width:0.8;"></path> </g> <g id="patch_9"> <path d="M 704.189687 164.717812 L 704.189687 35.117812 " style="fill:none;stroke:#000000;stroke-linecap:square;stroke-linejoin:miter;stroke-width:0.8;"></path> </g> <g id="patch_10"> <path d="M 380.189687 164.717812 L 704.189687 164.717812 " style="fill:none;stroke:#000000;stroke-linecap:square;stroke-linejoin:miter;stroke-width:0.8;"></path> </g> <g id="patch_11"> <path d="M 380.189687 35.117812 L 704.189687 35.117812 " style="fill:none;stroke:#000000;stroke-linecap:square;stroke-linejoin:miter;stroke-width:0.8;"></path> </g> </g> </g> <defs> <clipPath id="p968a080cf3"> <rect height="328.32" width="633.6" x="92.189688" y="17.837812"></rect> </clipPath> <clipPath id="pab666afc14"> <rect height="129.6" width="324" x="380.189687" y="35.117812"></rect> </clipPath> </defs>
</svg>
